<svg xmlns="http://www.w3.org/2000/svg" fill="none" viewBox="0 0 30 30">
  <path fill="#5a0722" d="M10.778 21.445q-4.519 0-7.648-3.133Q0 15.183 0 10.723q0-4.458 3.132-7.59T10.736 0t7.59 3.132q3.12 3.132 3.119 7.595a10.3 10.3 0 0 1-2.278 6.496L29 27q.403.39.403.994T29 29a1.37 1.37 0 0 1-1.006.403q-.604 0-.994-.403l-9.805-9.805a9.4 9.4 0 0 1-2.902 1.652 10.3 10.3 0 0 1-3.515.598m-.028-2.778q3.299 0 5.608-2.327t2.309-5.617-2.31-5.619Q14.05 2.78 10.75 2.778q-3.322 0-5.647 2.326t-2.325 5.619q0 3.291 2.325 5.617t5.647 2.327"/>
</svg>