<svg xmlns="http://www.w3.org/2000/svg" fill="none" viewBox="0 0 29 29">
  <mask id="a" width="29" height="29" x="0" y="0" maskUnits="userSpaceOnUse" style="mask-type:alpha">
    <path fill="#D9D9D9" d="M0 0h29v29H0z"/>
  </mask>
  <g mask="url(#a)">
    <path fill="#EAAA00" d="m9.637 20.542 4.863-2.206 4.864 2.206.453-.454L14.5 7.25 9.184 20.088l.453.454Zm4.863 6.041c-1.671 0-3.242-.317-4.712-.951a12.201 12.201 0 0 1-3.837-2.583 12.203 12.203 0 0 1-2.582-3.837c-.635-1.47-.952-3.04-.952-4.712 0-1.672.317-3.242.952-4.713A12.203 12.203 0 0 1 5.95 5.951a12.202 12.202 0 0 1 3.837-2.583c1.47-.634 3.04-.951 4.712-.951 1.672 0 3.243.317 4.713.951a12.202 12.202 0 0 1 3.836 2.583 12.203 12.203 0 0 1 2.583 3.836c.634 1.47.952 3.041.952 4.713 0 1.672-.317 3.242-.952 4.712a12.203 12.203 0 0 1-2.583 3.837 12.2 12.2 0 0 1-3.836 2.583c-1.47.634-3.041.951-4.713.951Zm0-2.416c2.699 0 4.985-.937 6.858-2.81 1.872-1.873 2.809-4.158 2.809-6.857s-.937-4.984-2.81-6.857C19.486 5.77 17.2 4.833 14.5 4.833c-2.698 0-4.984.937-6.857 2.81C5.77 9.516 4.833 11.8 4.833 14.5s.937 4.984 2.81 6.857c1.873 1.873 4.159 2.81 6.857 2.81Z"/>
  </g>
</svg>
