<svg xmlns="http://www.w3.org/2000/svg" width="22" height="22" viewBox="0 0 22 22" fill="none">
  <path d="M10.9029 12.8475L2.3475 21.4029C2.07889 21.6715 1.75472 21.8058 1.375 21.8058C0.995556 21.8058 0.671528 21.6715 0.402917 21.4029C0.134305 21.1343 0 20.8103 0 20.4308C0 20.0511 0.134305 19.7269 0.402917 19.4583L8.95833 10.9029L0.402917 2.3475C0.134305 2.07889 0 1.75472 0 1.375C0 0.995556 0.134305 0.671527 0.402917 0.402916C0.671528 0.134305 0.995556 0 1.375 0C1.75472 0 2.07889 0.134305 2.3475 0.402916L10.9029 8.95833L19.4583 0.402916C19.7269 0.134305 20.0511 0 20.4308 0C20.8103 0 21.1343 0.134305 21.4029 0.402916C21.6715 0.671527 21.8058 0.995556 21.8058 1.375C21.8058 1.75472 21.6715 2.07889 21.4029 2.3475L12.8475 10.9029L21.4029 19.4583C21.6715 19.7269 21.8058 20.0511 21.8058 20.4308C21.8058 20.8103 21.6715 21.1343 21.4029 21.4029C21.1343 21.6715 20.8103 21.8058 20.4308 21.8058C20.0511 21.8058 19.7269 21.6715 19.4583 21.4029L10.9029 12.8475Z" fill="white"/>
</svg>