<svg xmlns="http://www.w3.org/2000/svg" fill="none" viewBox="0 0 29 29">
  <mask id="a" width="29" height="29" x="0" y="0" maskUnits="userSpaceOnUse" style="mask-type:alpha">
    <path fill="#D9D9D9" d="M0 0h29v29H0z"/>
  </mask>
  <g mask="url(#a)">
    <path fill="#EAAA00" d="M14.138 21.75c-1.934-.1-3.565-.846-4.894-2.235-1.33-1.39-1.994-3.062-1.994-5.015 0-2.014.705-3.726 2.115-5.135 1.41-1.41 3.121-2.115 5.135-2.115 1.954 0 3.625.665 5.015 1.994 1.39 1.329 2.135 2.96 2.235 4.893l-2.537-.755a4.766 4.766 0 0 0-1.692-2.673c-.866-.695-1.873-1.042-3.02-1.042-1.33 0-2.468.473-3.414 1.42-.947.946-1.42 2.084-1.42 3.413 0 1.148.347 2.155 1.042 3.02a4.765 4.765 0 0 0 2.674 1.692l.755 2.538Zm1.45 4.773c-.181.04-.363.06-.544.06H14.5c-1.671 0-3.242-.317-4.712-.951a12.201 12.201 0 0 1-3.837-2.583 12.203 12.203 0 0 1-2.582-3.837c-.635-1.47-.952-3.04-.952-4.712 0-1.672.317-3.242.952-4.713A12.203 12.203 0 0 1 5.95 5.951a12.202 12.202 0 0 1 3.837-2.583c1.47-.634 3.04-.951 4.712-.951 1.672 0 3.243.317 4.713.951a12.202 12.202 0 0 1 3.836 2.583 12.203 12.203 0 0 1 2.583 3.836c.634 1.47.952 3.041.952 4.713v.544c0 .181-.02.362-.06.543l-2.357-.724V14.5c0-2.699-.937-4.984-2.81-6.857-1.872-1.873-4.158-2.81-6.857-2.81-2.698 0-4.984.937-6.857 2.81C5.77 9.516 4.833 11.8 4.833 14.5s.937 4.984 2.81 6.857c1.873 1.873 4.159 2.81 6.857 2.81h.363l.725 2.356Zm9.213.665-5.165-5.166-1.51 4.561L14.5 14.5l12.084 3.625-4.562 1.51 5.166 5.166-2.387 2.387Z"/>
  </g>
</svg>
