<svg xmlns="http://www.w3.org/2000/svg" fill="none" viewBox="0 0 29 29">
  <mask id="a" width="29" height="29" x="0" y="0" maskUnits="userSpaceOnUse" style="mask-type:alpha">
    <path fill="#D9D9D9" d="M0 0h29v29H0z"/>
  </mask>
  <g mask="url(#a)">
    <path fill="#EAAA00" d="m14.5 26.583-.302-3.625h-.302c-2.86 0-5.287-.997-7.28-2.99-1.994-1.994-2.991-4.42-2.991-7.28 0-2.86.997-5.287 2.99-7.28 1.994-1.995 4.421-2.991 7.28-2.991 1.43 0 2.765.266 4.003.8a10.372 10.372 0 0 1 5.468 5.468c.534 1.238.8 2.573.8 4.002 0 1.51-.246 2.96-.74 4.35a15.394 15.394 0 0 1-2.023 3.867 17.113 17.113 0 0 1-3.051 3.232 18.911 18.911 0 0 1-3.852 2.447Zm2.417-4.41a15.048 15.048 0 0 0 3.489-4.244 10.66 10.66 0 0 0 1.344-5.241c0-2.196-.76-4.053-2.28-5.574-1.521-1.52-3.379-2.28-5.574-2.28s-4.053.76-5.574 2.28c-1.52 1.52-2.28 3.378-2.28 5.574 0 2.195.76 4.052 2.28 5.573 1.52 1.52 3.379 2.28 5.574 2.28h3.02v1.632Zm-3.051-2.87c.342 0 .634-.12.876-.362.241-.242.362-.534.362-.877 0-.342-.12-.634-.362-.875a1.194 1.194 0 0 0-.876-.363c-.343 0-.635.12-.876.363a1.193 1.193 0 0 0-.363.875c0 .343.12.635.363.877.241.241.533.362.876.362Zm-.876-3.836h1.812c0-.604.06-1.027.181-1.27.121-.24.504-.684 1.148-1.328.363-.363.665-.755.907-1.178.241-.423.362-.877.362-1.36 0-1.027-.347-1.797-1.042-2.31-.695-.514-1.516-.771-2.462-.771-.886 0-1.631.247-2.236.74a3.937 3.937 0 0 0-1.268 1.797l1.691.665c.101-.342.292-.68.574-1.012.282-.332.695-.498 1.239-.498.544 0 .951.15 1.223.453.272.302.408.634.408.997 0 .342-.1.65-.302.921a7.491 7.491 0 0 1-.725.83c-.705.605-1.133 1.083-1.284 1.436-.15.352-.226.981-.226 1.888Z"/>
  </g>
</svg>
