<svg xmlns="http://www.w3.org/2000/svg" width="30" height="20" viewBox="0 0 30 20" fill="none">
  <path d="M1.38875 20C0.995417 20 0.665556 19.8664 0.399167 19.5992C0.133056 19.3322 0 19.0013 0 18.6063C0 18.2113 0.133056 17.8818 0.399167 17.6179C0.665556 17.354 0.995417 17.2221 1.38875 17.2221H28.6112C29.0046 17.2221 29.3344 17.3557 29.6008 17.6229C29.8669 17.8901 30 18.2211 30 18.6158C30 19.0108 29.8669 19.3403 29.6008 19.6042C29.3344 19.8681 29.0046 20 28.6112 20H1.38875ZM1.38875 11.3888C0.995417 11.3888 0.665556 11.2553 0.399167 10.9883C0.133056 10.7211 0 10.39 0 9.995C0 9.60028 0.133056 9.27097 0.399167 9.00708C0.665556 8.74319 0.995417 8.61125 1.38875 8.61125H28.6112C29.0046 8.61125 29.3344 8.74472 29.6008 9.01167C29.8669 9.27889 30 9.61 30 10.005C30 10.3997 29.8669 10.729 29.6008 10.9929C29.3344 11.2568 29.0046 11.3888 28.6112 11.3888H1.38875ZM1.38875 2.77792C0.995417 2.77792 0.665556 2.6443 0.399167 2.37708C0.133056 2.10986 0 1.77889 0 1.38417C0 0.989166 0.133056 0.659722 0.399167 0.395833C0.665556 0.131944 0.995417 0 1.38875 0H28.6112C29.0046 0 29.3344 0.133611 29.6008 0.400833C29.8669 0.667778 30 0.998751 30 1.39375C30 1.78875 29.8669 2.11819 29.6008 2.38208C29.3344 2.64597 29.0046 2.77792 28.6112 2.77792H1.38875Z" fill="white"/>
</svg>