<svg xmlns="http://www.w3.org/2000/svg" width="21" height="20" fill="none" viewBox="0 0 21 20"><path fill="#003DA5" d="M14.674 0H5.922a5.396 5.396 0 0 0-5.39 5.39v8.752a5.396 5.396 0 0 0 5.39 5.39h8.752a5.396 5.396 0 0 0 5.39-5.39V5.39A5.396 5.396 0 0 0 14.674 0Zm0 1.733A3.661 3.661 0 0 1 18.33 5.39v8.752a3.661 3.661 0 0 1-3.657 3.657H5.922a3.661 3.661 0 0 1-3.657-3.657V5.39a3.661 3.661 0 0 1 3.657-3.657h8.752ZM10.298 4.65a5.121 5.121 0 0 0-5.116 5.116 5.121 5.121 0 0 0 5.116 5.116 5.121 5.121 0 0 0 5.115-5.116 5.121 5.121 0 0 0-5.115-5.116Zm0 1.762a3.358 3.358 0 0 1 3.354 3.354 3.358 3.358 0 0 1-3.354 3.354 3.358 3.358 0 0 1-3.354-3.354 3.358 3.358 0 0 1 3.354-3.354Zm5.58-3.622a1.4 1.4 0 0 0-1.395 1.395c0 .367.15.727.41.987.259.259.619.409.985.409.368 0 .727-.15.987-.409.26-.26.409-.62.409-.987s-.149-.728-.409-.986a1.401 1.401 0 0 0-.987-.409Z"/></svg>