<svg xmlns="http://www.w3.org/2000/svg" fill="none" viewBox="0 0 200 43">
  <path fill="#fff" d="M54.726 25.465v-1.283c3.778-.223 4.054-.499 4.054-4.669V6.567c0-4.17-.33-4.393-3.787-4.615V.669h12.029v1.283c-3.716.222-4.046.445-4.046 4.615v13.116c0 2.165.268 3.279 1.034 3.67.766.393 1.889.446 3.876.446s3.831-.392 4.695-1.39a9.7 9.7 0 0 0 1.836-3.724l1.399.17c-.267 1.273-1.078 5.55-1.4 6.61zM76.253 13.65c0-9.337 7.128-13.623 12.83-13.623 7.77 0 12.786 5.614 12.786 12.786 0 8.732-6.415 13.365-12.732 13.365a12.473 12.473 0 0 1-12.884-12.527m13.365 10.844c4.152 0 7.44-2.78 7.44-10.567 0-6.335-3.02-12.225-8.412-12.225-4.365 0-7.493 3.832-7.493 10.612-.044 7.2 3.083 12.154 8.42 12.154zm17.544.97v-1.283c3.885-.276 4.161-.552 4.161-4.606V16.18a4.08 4.08 0 0 0-.82-2.61c-1.131-2.059-2.673-4.616-5.123-8.84-1.399-2.45-1.782-2.503-4.206-2.78V.67h10.79v1.283l-1.675.222c-1.238.16-1.292.5-.748 1.613.258.553 3.715 6.665 5.007 8.839 1.675-2.95 3.342-6.674 4.206-8.51.704-1.559.597-1.781-.891-1.942l-1.559-.222V.669h9.498v1.283c-2.914.276-3.128.668-4.589 2.833s-3.074 4.838-4.856 8.064a4.6 4.6 0 0 0-.891 2.673v4.01c0 4.053.33 4.33 4.322 4.606v1.283zM124.43 13.65c0-9.337 7.128-13.623 12.839-13.623 7.761 0 12.786 5.614 12.786 12.786 0 8.732-6.424 13.365-12.732 13.365a12.475 12.475 0 0 1-12.893-12.527m13.365 10.844c4.152 0 7.44-2.78 7.44-10.567 0-6.335-3.021-12.225-8.411-12.225-4.375 0-7.503 3.832-7.503 10.612-.035 7.2 3.092 12.154 8.438 12.154zm14.149.97v-1.283c3.769-.223 4.036-.499 4.036-4.669V6.567c0-4.17-.321-4.393-3.769-4.615V.669h12.029v1.283c-3.725.222-4.045.445-4.045 4.615v13.116c0 2.165.267 3.279 1.024 3.67.758.393 1.889.446 3.885.446s3.823-.392 4.687-1.39a9.5 9.5 0 0 0 1.835-3.724l1.399.17c-.267 1.273-1.069 5.55-1.399 6.61zm36.905-1.283 1.025-.107c1.515-.17 1.996-.615.891-3.225l-1.835-4.455h-7.494c-.383.89-1.301 3.501-1.835 5.168-.651 1.888-.161 2.44 1.399 2.557l1.238.107v1.283h-9.373v-1.328c2.37-.276 3.296-.499 4.856-4.33L185.74.339 187.085 0l8.019 20.493c1.292 3.28 2.326 3.502 4.696 3.662v1.283h-10.951zm-6.798-9.72h6.237l-3.127-8.457h-.107zM54.726 30.508h1.782v5.07c-.036.42.022.843.17 1.239a1.675 1.675 0 0 0 2.672 0c.157-.394.224-.816.197-1.239v-5.07h1.782v5.08a4.3 4.3 0 0 1-.401 2.04 3.806 3.806 0 0 1-5.81 0 4.16 4.16 0 0 1-.41-2.04zm9.748 0h1.782l3.279 5.756v-5.756h1.603v8.251h-1.684l-3.359-5.854v5.854h-1.603zm11.458 8.252h-1.71v-8.252h1.71zm7.903-8.252h1.782L82.82 38.76h-1.63l-2.825-8.25H80.2l1.782 6.236zm9.926 1.462h-4.357v1.782h4v1.434h-4v2.12h4.562v1.48H87.73v-8.278h6.05zm8.135-1.248a2.27 2.27 0 0 1 1.185 1.274c.115.283.169.587.16.891a2.5 2.5 0 0 1-.303 1.159 1.65 1.65 0 0 1-.98.802c.338.115.625.345.811.65.187.404.269.848.241 1.292v.553q-.01.389.044.775a.65.65 0 0 0 .321.463v.205h-1.907a3 3 0 0 1-.107-.437 4 4 0 0 1-.08-.712v-.82a1.55 1.55 0 0 0-.276-1.052 1.35 1.35 0 0 0-.98-.267h-1.684v3.234h-1.684v-8.224h3.983a3.7 3.7 0 0 1 1.256.214m-3.564 1.22v2.202h1.853c.286.015.571-.03.838-.134a.93.93 0 0 0 .49-.89 1.04 1.04 0 0 0-.481-1.008 1.64 1.64 0 0 0-.793-.151zm8.669 4.278c.026.303.137.593.321.837a1.78 1.78 0 0 0 1.461.517c.344.008.687-.04 1.016-.143a.955.955 0 0 0 .739-.953.72.72 0 0 0-.365-.633 3.9 3.9 0 0 0-1.14-.383l-.891-.196a5.8 5.8 0 0 1-1.782-.633 2.03 2.03 0 0 1-.829-1.782 2.35 2.35 0 0 1 .811-1.835 3.47 3.47 0 0 1 2.397-.74 3.67 3.67 0 0 1 2.254.695 2.45 2.45 0 0 1 .98 2.005h-1.657a1.19 1.19 0 0 0-.669-1.06 2.3 2.3 0 0 0-1.024-.205 1.94 1.94 0 0 0-1.087.267.9.9 0 0 0-.41.758.71.71 0 0 0 .401.659c.35.158.718.272 1.096.338l1.452.34c.512.1.998.306 1.426.605a2 2 0 0 1 .73 1.684 2.39 2.39 0 0 1-.891 1.88c-.712.53-1.59.793-2.477.74a4.06 4.06 0 0 1-2.566-.731 2.46 2.46 0 0 1-.891-2.023zm9.543 2.54h-1.711v-8.252h1.711zm9.32-8.252v1.462h-2.468v6.79h-1.728v-6.79h-2.486v-1.462zm6.505 0h1.951l-2.762 5.16v3.091h-1.72v-3.092l-2.86-5.159h2.032l1.719 3.564zm9.257.865a3.4 3.4 0 0 1 2.54-1.016 3.42 3.42 0 0 1 3.011 1.363c.327.452.522.986.562 1.542h-1.729a2.2 2.2 0 0 0-.419-.891 1.71 1.71 0 0 0-1.363-.535 1.67 1.67 0 0 0-1.452.757 3.7 3.7 0 0 0-.535 2.148 3.28 3.28 0 0 0 .561 2.085 1.79 1.79 0 0 0 1.426.686 1.63 1.63 0 0 0 1.354-.588c.205-.29.351-.617.428-.963h1.711a3.68 3.68 0 0 1-1.132 2.192 3.3 3.3 0 0 1-2.334.847 3.49 3.49 0 0 1-2.771-1.14 4.62 4.62 0 0 1-1.007-3.146 4.57 4.57 0 0 1 1.149-3.341m8.518 7.387v-8.252h1.711v3.155h3.207v-3.155h1.711v8.251h-1.711v-3.68h-3.207v3.68zm11.548 0h-1.711v-8.252h1.711zm3.822-7.387a3.86 3.86 0 0 1 5.551.347c.327.452.522.986.562 1.542h-1.72a2.35 2.35 0 0 0-.419-.891 1.73 1.73 0 0 0-1.372-.535 1.67 1.67 0 0 0-1.452.758 3.7 3.7 0 0 0-.535 2.147 3.28 3.28 0 0 0 .561 2.085 1.79 1.79 0 0 0 1.426.686 1.61 1.61 0 0 0 1.354-.588c.212-.286.358-.614.428-.962h1.711a3.68 3.68 0 0 1-1.123 2.191 3.33 3.33 0 0 1-2.343.847 3.47 3.47 0 0 1-2.762-1.14 4.57 4.57 0 0 1-1.007-3.146 4.55 4.55 0 0 1 1.14-3.341m10.202-.865h1.952l2.913 8.251h-1.871l-.543-1.693h-3.039l-.552 1.693h-1.782zm-.115 5.142h2.111l-1.042-3.288zm12.268-2.567a1.63 1.63 0 0 0-.962-1.176 2.3 2.3 0 0 0-.944-.187 2.02 2.02 0 0 0-1.631.757 3.4 3.4 0 0 0-.65 2.255 2.78 2.78 0 0 0 .704 2.156c.421.404.984.628 1.568.624a2.06 2.06 0 0 0 1.425-.49c.374-.344.617-.807.686-1.31h-1.888V34.34h3.439v4.455h-1.141l-.196-1.087a4 4 0 0 1-.891.82 3.1 3.1 0 0 1-1.675.418 3.5 3.5 0 0 1-2.673-1.131 4.35 4.35 0 0 1-1.087-3.128 4.6 4.6 0 0 1 1.096-3.207 4.23 4.23 0 0 1 5.444-.41 2.92 2.92 0 0 1 1.096 1.987zm10.871 4.945a4.28 4.28 0 0 1-5.409 0 4.45 4.45 0 0 1-1.247-3.403 4.4 4.4 0 0 1 1.247-3.404 4.28 4.28 0 0 1 5.409 0 4.37 4.37 0 0 1 1.247 3.404 4.46 4.46 0 0 1-1.247 3.403m-1.078-1.212a4.11 4.11 0 0 0 0-4.294 1.95 1.95 0 0 0-1.622-.757 1.99 1.99 0 0 0-1.64.757 4.11 4.11 0 0 0 0 4.294 2 2 0 0 0 1.64.758 1.94 1.94 0 0 0 1.622-.758"/>
  <path stroke="#eaaa00" stroke-width=".349" d="M37.757 1.324v23.26c0 2.095-.91 3.892-2.291 5.416-1.383 1.526-3.231 2.77-5.09 3.753-1.858.981-3.717 1.697-5.112 2.167a36 36 0 0 1-2.157.65l-.123.032-.124-.032a36 36 0 0 1-2.154-.653c-1.395-.471-3.253-1.188-5.11-2.17-1.857-.984-3.705-2.229-5.086-3.754-1.38-1.523-2.29-3.319-2.29-5.409V1.324z"/>
  <path fill="#fff" d="m9.195 9.204.187-.971h1.364v4.384H9.632V9.204zm5.391.089a1.03 1.03 0 0 1-.686.99 1.17 1.17 0 0 1 .891 1.14c0 .891-.891 1.31-1.648 1.31-.758 0-1.658-.41-1.658-1.31a1.17 1.17 0 0 1 .891-1.14 1.04 1.04 0 0 1-.686-.99 1.33 1.33 0 0 1 1.48-1.238 1.32 1.32 0 0 1 1.416 1.238m-1.951 0a.48.48 0 0 0 .676.504.48.48 0 0 0 .277-.504.481.481 0 1 0-.953 0m0 1.96a.515.515 0 0 0 .691.603.52.52 0 0 0 .324-.54.516.516 0 1 0-1.024 0zm2.699-1.933V8.27h3.564l-2.414 4.347h-1.31l1.916-3.296zm7.11 1.105c0 1.105-.525 2.28-1.782 2.28-1.256 0-1.782-1.175-1.782-2.28s.535-2.281 1.782-2.281c1.248 0 1.782 1.14 1.782 2.28m-2.477 0c0 .41.134 1.318.695 1.318.562 0 .704-.89.704-1.318s-.133-1.31-.704-1.31c-.57 0-.695.855-.695 1.31m-8.832 9.356s.446.33-.356 2.246c-.16.383-.891 1.782 0 2.673a1.66 1.66 0 0 0 1.577.437c.062.365.089.552.089.552h-.704c-.641 0-.668.74-.668.74v2.994l.49.49h1.64c0-.74-.892-1.052-.892-1.052v-1.256h1.497c.793-.062 1.23-1.604 1.23-1.604l.579.062q-.369.856-.829 1.667l1.782 1.666v.49h1.8c.09-.463-.828-.891-.828-.891l-1.194-1.292c-.152-.17-.045-.339.16-.41s.41-.125.668-.223a1.657 1.657 0 0 0 .891-2.111c-.445-1.301-1.951-.767-1.951-.891 0-.125.793-1.996.793-1.996l-.642-.963.767.5 2.005-.42c.213 1.73 1.015 1.293 1.015 1.293v-1.292a1.25 1.25 0 0 0-.802-1.105 5.8 5.8 0 0 0-1.835-.187.24.24 0 0 1-.196-.312h1.212l1.069-.891.579-.063c1.07-.178.677-1.015.677-1.015h-1.532a6.7 6.7 0 0 0-2.085 1.113 1.52 1.52 0 0 1 .89-1.666c1.141-.427.892-.766.892-.766l-1.07.365s-.124-.124.063-.4a4 4 0 0 1 .971-.42.608.608 0 0 0 .463-.793l-1.194.116c-.276-.24-.25-.276-.641-.338-.392-.063-1.016.499-.954.312q.143-.631.205-1.274c.054-.5-1.559 1.781-1.559 1.781-2.085 3.974-1.506 6.656-1.506 6.656a2.67 2.67 0 0 0-1.372 1.782c0-2.236.73-2.076.695-3.492-.035-1.417-1.523-1.283-1.523-1.283a.83.83 0 0 0-.767.365s.277-.054.401.107"/>
  <path fill="#fff" d="M23.13 29.947a2.98 2.98 0 0 1-2.254-.944 3.24 3.24 0 0 1-.989-2.219V24.46a.41.41 0 0 1-.303-.357c0-.356.357-.303.357-.303h.748c0 .793.455.704.455.704.525 0 .41-.704.41-.704h3.1s-.107.722.42.704c0 0 .48.09.445-.704h.748s.374-.053.357.303a.39.39 0 0 1-.295.357v2.325a3.27 3.27 0 0 1-.98 2.219 2.97 2.97 0 0 1-2.245.944z"/>
  <path fill="#fff" d="M34.984 19.799s-.446.33.356 2.245c.16.383.89 1.782 0 2.673a1.66 1.66 0 0 1-1.577.437c-.063.365-.098.552-.098.552h.704c.65 0 .677.74.677.74v2.993l-.49.49h-1.604c0-.74.891-1.051.891-1.051v-1.256h-1.47c-.802-.063-1.23-1.604-1.23-1.604l-.579.062q.369.856.829 1.666l-1.782 1.667v.49h-1.863c-.089-.464.83-.891.83-.891l1.193-1.292c.151-.17.045-.339-.16-.41-.205-.072-.41-.125-.669-.223a1.667 1.667 0 0 1-.89-2.112c.454-1.3 1.96-.766 1.96-.89 0-.125-.793-1.988-.793-1.988l.641-.962-.766.5-2.023-.429c-.214 1.729-1.007 1.292-1.007 1.292v-1.292a1.25 1.25 0 0 1 .793-1.104 5.8 5.8 0 0 1 1.836-.188.24.24 0 0 0 .196-.311h-1.203l-1.07-.891-.578-.063c-1.078-.178-.678-1.016-.678-1.016h1.533a6.6 6.6 0 0 1 2.076 1.114 1.514 1.514 0 0 0-.89-1.666c-1.133-.428-.892-.766-.892-.766l1.043.436s.124-.124-.063-.4a4 4 0 0 0-.944-.49.604.604 0 0 1-.455-.794l1.194.116c.276-.24.24-.276.642-.338.4-.063 1.016.498.953.311q-.135-.64-.187-1.292c-.053-.498 1.56 1.782 1.56 1.782 2.084 3.974 1.505 6.656 1.505 6.656a2.68 2.68 0 0 1 1.372 1.782c0-2.236-.73-2.076-.704-3.492.027-1.417 1.533-1.283 1.533-1.283a.83.83 0 0 1 .766.365s-.294-.036-.419.125M23.29 21.117v-5.988a.3.3 0 0 0 .161-.25.303.303 0 0 0-.303-.302.303.303 0 0 0-.151.561v5.979l-1.96 2.014v.659h.294v-.535l1.835-1.88 1.836 1.88v.535h.231v-.633z"/>
  <mask id="a" fill="#fff">
    <path d="M22.988 1.15v1.646l2.47-1.647z"/>
  </mask>
  <path fill="#eaaa00" d="M22.988 1.15v1.646l2.47-1.647z"/>
  <path fill="#eaaa00" d="M22.988 1.15V-.248h-1.396v1.396zm0 1.646h-1.396v2.609l2.17-1.447zm2.47-1.647.774 1.162L30.07-.247h-4.613zm-2.47 0h-1.396v1.647h2.793V1.149zm0 1.647.775 1.162 2.47-1.647-.776-1.162-.774-1.162-2.47 1.647zm2.47-1.647V-.247h-2.47v2.793h2.47z" mask="url(#a)"/>
  <mask id="b" fill="#fff">
    <path d="M36.157 12.672h1.646v-1.646z"/>
  </mask>
  <path fill="#eaaa00" d="M36.157 12.672h1.646v-1.646z"/>
  <path fill="#eaaa00" d="m36.157 12.672-.987-.987-2.384 2.384h3.371zm1.646 0v1.397H39.2v-1.397zm0-1.646H39.2V7.654l-2.384 2.385zm-1.646 1.646v1.397h1.646v-2.794h-1.646zm1.646 0H39.2v-1.646h-2.793v1.646zm0-1.646-.987-.987-1.646 1.646.987.987.988.988 1.646-1.646z" mask="url(#b)"/>
  <path fill="#eaaa00" stroke="#eaaa00" stroke-width="1.397" d="M27.715 1.848 23.686 5.37V5.3l3.957-3.453zm4.187 0L23.686 9.43v-.074l8.138-7.51zm-7.056 10.126h-.04l5.136-4.63zm12.259-7.511-8.12 7.511h-.096l8.216-7.585zm0 4.052-3.927 3.46h-.1l4.026-3.526z"/>
  <path fill="#fff" d="m5.551 2.958-1.345.5c-.891.33-1.782.641-2.513.89-.73.25-.704.357-.74.776H.75V3.208h.204v.205c.045.276.116.294.393.205.276-.09.668-.25 1.042-.401V1.87c-.214-.089-.624-.222-.891-.32s-.481-.072-.517.25v.195H.775V.383H.98c.054.455.08.535.74.785l3.778 1.47zm-2.798-.97v1.149l1.595-.57zM5.47 7.61a2.9 2.9 0 0 1-.64 2.03 2.16 2.16 0 0 1-1.515.616c-1.782 0-2.566-1.381-2.566-3.083V5.39h.204c0 .597.098.66.891.66h2.567c.784 0 .846-.063.89-.598h.206zm-3.617-.75c-.668 0-.81.072-.81.634 0 1.202.89 1.826 2.058 1.826 1.55 0 2.094-.784 2.094-1.942a1.1 1.1 0 0 0-.072-.473c0-.044-.16-.044-.356-.044zm3.617 10.3-3.465 1.614 3.466 1.514v1.381H5.3c-.062-.588-.089-.614-.89-.605l-2.54.07c-.81 0-.829 0-.89.633H.774v-2.031H.98c.054.57.071.588.891.58H4.66L.846 18.612v-.223l3.645-1.585H2.61a10 10 0 0 0-1.275 0c-.276 0-.338.178-.374.659H.757v-1.782h.205c0 .365.098.508.374.561.277.054.642.09 1.346.134l1.497.071c.962.053 1.033 0 1.096-.624h.205zm.099 7.476-1.345.526c-.891.338-1.782.668-2.504.953s-.686.357-.73.776H.783v-1.916H.98v.205c0 .276.116.285.392.196.277-.09.669-.259 1.043-.41V23.62c-.223-.089-.624-.213-.936-.311s-.48-.072-.508.25v.204H.775V22.15H.98c.063.446.098.526.749.776l3.75 1.416zm-2.816-.89v1.158l1.595-.588zm1.925 3.1c.748-.232.784-.303.65-.891l.196-.062.606 1.95-.196.063c-.196-.481-.267-.517-1.016-.285l-2.236.704a2.08 2.08 0 0 1-2.023-.107A2.7 2.7 0 0 1 0 27.505l.17-.142a1.27 1.27 0 0 0 1.122.445 6.2 6.2 0 0 0 1.238-.294zm1.782 6.193a2.424 2.424 0 0 1-3.448-.838 2.307 2.307 0 0 1 .89-3.252 2.48 2.48 0 0 1 3.485.891 2.29 2.29 0 0 1-.927 3.199m-1.907-3.35c-1.131.668-1.72 1.675-1.194 2.566.384.65 1.221.837 2.397.142s1.729-1.71 1.239-2.548c-.392-.713-1.328-.855-2.442-.16m9.721 6.389c0 .106-.312.579-.508.98l-.196-.107a1.3 1.3 0 0 0 .125-.704c0-.17-.214-.33-.597-.57l-.303-.187c-.24-.152-.25-.152-.392.062l-.811 1.31.526.33c.525.329.561.302.89-.134l.197.124-.775 1.301-.197-.116c.241-.525.241-.56-.285-.89l-.525-.34-.642 1.017c-.223.356-.303.543-.24.695.138.19.322.343.534.445.232.198.533.297.838.276.257-.1.495-.245.704-.427l.16.151q-.42.47-.891.891l-3.003-1.889.116-.17c.544.295.633.277 1.043-.382l1.354-2.157c.419-.668.4-.748-.045-1.078l.107-.169zm1.666.667.107 3.814 2.762-2.584 1.266.543-.08.187c-.562-.178-.607-.169-.892.57l-.944 2.37c-.303.75-.285.776.232 1.06l-.08.188-1.863-.802.08-.187c.544.17.57.17.891-.58l1.078-2.574-3.011 2.824-.196-.08v-3.983l-.784 1.711q-.335.56-.588 1.158c-.08.259 0 .375.463.606l-.08.187-1.586-.686.089-.178c.338.116.499.107.66-.133.16-.241.338-.553.65-1.177l.668-1.345c.428-.891.41-.954-.143-1.256l.08-.187zm11.263.963a2.85 2.85 0 0 1 2.156-.143c.51.233.91.654 1.113 1.176.651 1.666-.347 2.905-1.933 3.564l-1.657.65-.072-.186c.544-.259.57-.339.286-1.07l-.891-2.36c-.285-.731-.357-.767-.891-.615l-.08-.188zm.641 3.626c.267.615.383.713.891.5a1.78 1.78 0 0 0 .891-2.612c-.606-1.425-1.541-1.612-2.61-1.158-.153.05-.293.132-.41.24 0 .054 0 .17.106.348zm4.74-5.925c.063.098.339.56.58.89l-.188.116a1.27 1.27 0 0 0-.543-.463c-.16-.053-.392 0-.793.214l-.321.17c-.25.124-.258.133-.143.365l.704 1.372.562-.285c.552-.285.543-.33.356-.891l.205-.107.704 1.372-.205.107c-.33-.481-.357-.5-.891-.214l-.561.285.525 1.15c.196.374.312.543.472.57a1.46 1.46 0 0 0 .66-.24c.33-.161.615-.34.668-.571a2.3 2.3 0 0 0 0-.82l.214-.062q.186.553.312 1.122l-3.154 1.622-.09-.178c.535-.33.562-.41.205-1.105l-1.158-2.263c-.365-.695-.437-.722-.953-.508l-.09-.178zm2.237-1.389.107.177c-.446.321-.463.401 0 1.07l1.336 2.165c.41.668.49.686.98.436l.107.17-1.782 1.078-.107-.17c.455-.338.473-.418.063-1.087l-1.337-2.165c-.374-.66-.49-.66-.998-.419l-.106-.178zm8.357-4.572q.307.119.633.152a5.8 5.8 0 0 1-.196 1.603 2.416 2.416 0 0 1-3.128 1.783 2.52 2.52 0 0 1-1.55-3.386q.232-.667.606-1.266c.24.063.615.134 1.158.25v.232a1.256 1.256 0 0 0-1.541 1.015c-.312.954.205 1.845 1.461 2.255 1.06.338 2.308.24 2.718-1.016a1.1 1.1 0 0 0 .071-.481c0-.152-.107-.25-.383-.339l-.58-.187c-.472-.151-.525-.134-.819.58l-.196-.063.624-1.916.205.063c-.063.383 0 .418.445.57zm-3.323-3.84h.205c0 .588 0 .65.784.757l2.504.357c.418.062.623 0 .73-.063.113-.173.177-.373.187-.579 0-.33.143-1.203 0-1.381a2.1 2.1 0 0 0-.677-.454l.08-.223c.223.071.891.338 1.14.428l-.552 3.893h-.205c0-.606 0-.677-.784-.784l-2.512-.356c-.784-.116-.891-.063-.972.508h-.204zm2.682-6.541a2.415 2.415 0 0 1 2.379 2.674 2.3 2.3 0 0 1-2.54 2.21 2.48 2.48 0 0 1-2.37-2.674 2.28 2.28 0 0 1 2.53-2.21m-.33 3.876c1.31.098 2.37-.418 2.433-1.443.053-.758-.535-1.381-1.898-1.47-1.506-.107-2.397.436-2.46 1.407-.053.767.66 1.426 1.925 1.506m-2.101-6.05a2.16 2.16 0 0 1 .249-1.194 1.06 1.06 0 0 1 .891-.48 1.33 1.33 0 0 1 1.256.97c.205-.116.713-.4 1.034-.632q.428-.274.81-.606a.95.95 0 0 0 .33-.5h.196v.304a1.46 1.46 0 0 1-.668 1.327c-.338.232-.802.473-1.176.678a.42.42 0 0 0-.276.427v.232h.971c.784 0 .891-.062.891-.615h.205v2.05h-.205c0-.58-.098-.642-.891-.642H41.2c-.784 0-.89.062-.89.615h-.206zm2.414.553v-.232a1.04 1.04 0 0 0-.187-.686 1.16 1.16 0 0 0-.891-.392.943.943 0 0 0-1.025.989c0 .347 0 .365.268.365zm-2.414-5.578h.204c.045.553.107.615.891.615h2.54c.784 0 .89-.062.89-.615h.206v2.05h-.205c0-.562-.098-.624-.891-.624H41.2c-.784 0-.89.062-.89.624h-.206zM40.05 8.99l1.346-.499c.891-.33 1.782-.642 2.513-.891.73-.25.704-.356.74-.775h.204V8.74h-.205v-.204c0-.277-.115-.295-.392-.205-.276.089-.668.25-1.042.4v1.355c.214.089.624.223.89.32.268.099.482.072.518-.249v-.196h.205v1.613h-.205c-.054-.455-.08-.535-.74-.784l-3.778-1.506zm2.799.98V8.812l-1.595.57zm-2.744-5.087 3.51-1.604-3.466-1.524V.383h.205c.062.588.09.624.891.606l2.54-.071c.81 0 .828-.045.89-.633h.205v2.023h-.205c-.053-.561-.07-.588-.89-.58h-2.79l3.787 1.65v.213l-3.644 1.595 1.889.053q.632.045 1.265 0c.276 0 .339-.178.374-.659h.205V6.3h-.205c0-.366-.097-.508-.374-.553a10 10 0 0 0-1.345-.133l-1.542.017c-.962-.053-1.033 0-1.096.624h-.204zM22.783 42.109a.793.793 0 1 0 0-1.586.793.793 0 0 0 0 1.586m15.138-6.727a.793.793 0 1 0 0-1.586.793.793 0 0 0 0 1.586M3.154 14.016a.793.793 0 1 0 0-1.586.793.793 0 0 0 0 1.586M9.89 32.762c.345.248.609.592.758.99a1.06 1.06 0 0 1-.268.997 1.32 1.32 0 0 1-1.559.285c-.044.232-.178.793-.223 1.194q-.09.495-.098.998c-.012.206.038.41.143.588l-.143.116-.249-.223a1.42 1.42 0 0 1-.535-1.38c.054-.402.188-.892.286-1.328a.42.42 0 0 0-.125-.49l-.178-.152-.65.722c-.527.58-.518.66-.143 1.06l-.134.152-1.47-1.364.133-.151c.464.356.544.347 1.07-.232l1.701-1.88c.526-.579.526-.66.143-1.06l.134-.151zm-2.022 1.381.205.188c.168.176.391.29.632.32a1.17 1.17 0 0 0 .891-.428.936.936 0 0 0-.053-1.416c-.258-.232-.285-.223-.446-.054z"/>
</svg>