<svg xmlns="http://www.w3.org/2000/svg" fill="none" viewBox="0 0 243 53">
  <path fill="#fff" d="M66.492 30.94v-1.559c4.59-.27 4.926-.606 4.926-5.672V7.979c0-5.067-.401-5.337-4.601-5.608V.812H81.43v1.56c-4.514.27-4.915.54-4.915 5.607v15.936c0 2.63.325 3.983 1.256 4.46s2.295.541 4.71.541 4.655-.476 5.705-1.689a11.75 11.75 0 0 0 2.23-4.525l1.7.206c-.325 1.548-1.31 6.744-1.7 8.032zm26.155-14.354c0-11.346 8.66-16.553 15.589-16.553 9.44 0 15.535 6.82 15.535 15.535 0 10.61-7.795 16.239-15.47 16.239a15.156 15.156 0 0 1-15.654-15.221m16.239 13.175c5.044 0 9.039-3.378 9.039-12.84 0-7.697-3.67-14.853-10.219-14.853-5.305 0-9.105 4.655-9.105 12.894-.054 8.747 3.746 14.766 10.23 14.766zm21.316 1.179v-1.559c4.72-.335 5.055-.67 5.055-5.596V19.66a4.96 4.96 0 0 0-.996-3.172c-1.375-2.5-3.247-5.608-6.225-10.74-1.699-2.976-2.165-3.041-5.109-3.377V.812h13.11v1.56l-2.036.27c-1.504.195-1.569.606-.909 1.96.314.67 4.514 8.097 6.084 10.738 2.035-3.583 4.06-8.108 5.11-10.338.855-1.895.725-2.165-1.083-2.36l-1.894-.27V.811h11.54v1.56c-3.54.335-3.8.811-5.575 3.442-1.776 2.63-3.735 5.878-5.9 9.797a5.6 5.6 0 0 0-1.083 3.248v4.871c0 4.926.401 5.262 5.251 5.597v1.56zm20.98-14.354c0-11.346 8.661-16.553 15.6-16.553 9.429 0 15.535 6.82 15.535 15.535 0 10.61-7.806 16.239-15.47 16.239a15.16 15.16 0 0 1-11.071-4.278 15.16 15.16 0 0 1-4.594-10.943m16.239 13.175c5.044 0 9.039-3.378 9.039-12.84 0-7.697-3.67-14.853-10.219-14.853-5.316 0-9.116 4.655-9.116 12.894-.043 8.747 3.757 14.766 10.252 14.766zm17.191 1.179v-1.559c4.579-.27 4.904-.606 4.904-5.672V7.979c0-5.067-.39-5.337-4.579-5.608V.812h14.615v1.56c-4.526.27-4.915.54-4.915 5.607v15.936c0 2.63.324 3.983 1.245 4.46.92.476 2.295.541 4.72.541s4.644-.476 5.694-1.689a11.6 11.6 0 0 0 2.23-4.525l1.7.206c-.325 1.548-1.299 6.744-1.7 8.032zm44.84-1.559 1.245-.13c1.841-.205 2.425-.747 1.083-3.919l-2.23-5.413h-9.105c-.465 1.083-1.58 4.255-2.23 6.28-.79 2.294-.195 2.966 1.7 3.106l1.505.13v1.56h-11.389V29.38c2.879-.335 4.005-.606 5.9-5.261L225.674.41l1.635-.41 9.743 24.9c1.57 3.983 2.825 4.254 5.705 4.449v1.559h-13.305zm-8.26-11.81h7.578l-3.8-10.274h-.13zm-154.7 19.497h2.165v6.16c-.043.51.027 1.024.206 1.504a2.037 2.037 0 0 0 3.248 0c.19-.477.271-.991.238-1.505v-6.16h2.165v6.171a5.2 5.2 0 0 1-.487 2.48 4.62 4.62 0 0 1-7.059 0 5.06 5.06 0 0 1-.498-2.48zm11.844 0H80.5l3.984 6.993v-6.993h1.948v10.024h-2.046l-4.081-7.112v7.112h-1.949zm13.921 10.024H90.18V37.068h2.078zm9.603-10.024h2.165l-3.399 10.024h-1.981l-3.432-10.024h2.23l2.165 7.578zm12.06 1.775h-5.294v2.165h4.861v1.743h-4.861v2.577h5.543v1.797h-7.578V37.068h7.35zm9.884-1.515c.363.16.685.4.942.703.215.25.383.536.498.845.139.343.205.712.194 1.082a3.06 3.06 0 0 1-.368 1.407 2 2 0 0 1-1.191.975c.411.14.76.42.986.79.226.49.327 1.03.292 1.57v.671q-.012.473.054.942a.8.8 0 0 0 .39.563v.249h-2.317a4 4 0 0 1-.13-.53 4.6 4.6 0 0 1-.097-.867v-.996a1.88 1.88 0 0 0-.336-1.277 1.65 1.65 0 0 0-1.191-.325h-2.046v3.93h-2.046v-9.992h4.839a4.5 4.5 0 0 1 1.527.26m-4.331 1.483v2.674h2.252c.347.018.694-.037 1.018-.163a1.13 1.13 0 0 0 .595-1.082 1.25 1.25 0 0 0-.584-1.224 2 2 0 0 0-.964-.184zm10.534 5.196c.031.369.166.721.389 1.017a2.17 2.17 0 0 0 1.776.628c.418.01.835-.048 1.234-.173a1.16 1.16 0 0 0 .898-1.158.87.87 0 0 0-.443-.769 4.7 4.7 0 0 0-1.386-.466l-1.083-.238a7 7 0 0 1-2.165-.768 2.47 2.47 0 0 1-1.007-2.166 2.87 2.87 0 0 1 .985-2.23 4.22 4.22 0 0 1 2.913-.898 4.46 4.46 0 0 1 2.739.844 2.98 2.98 0 0 1 1.19 2.436h-2.013a1.44 1.44 0 0 0-.812-1.288 2.84 2.84 0 0 0-1.245-.25 2.36 2.36 0 0 0-1.321.326 1.08 1.08 0 0 0-.498.92.87.87 0 0 0 .487.8c.425.193.873.332 1.332.412l1.764.412a4.6 4.6 0 0 1 1.733.736 2.43 2.43 0 0 1 .887 2.046 2.92 2.92 0 0 1-1.082 2.284 4.58 4.58 0 0 1-3.01.899 4.93 4.93 0 0 1-3.118-.888 2.98 2.98 0 0 1-1.082-2.458zm11.594 3.085h-2.078V37.068h2.078zm11.324-10.024v1.775h-2.999v8.25h-2.1v-8.25h-3.02v-1.775zm7.903 0h2.371l-3.356 6.268v3.756h-2.09v-3.756l-3.475-6.268h2.469l2.089 4.33zm11.248 1.05a4.1 4.1 0 0 1 3.085-1.234 4.16 4.16 0 0 1 3.659 1.656c.397.549.634 1.197.682 1.873h-2.1a2.7 2.7 0 0 0-.509-1.083 2.08 2.08 0 0 0-1.656-.65 2.04 2.04 0 0 0-1.765.92 4.5 4.5 0 0 0-.649 2.61c-.066.897.174 1.79.682 2.533a2.17 2.17 0 0 0 1.732.834 1.98 1.98 0 0 0 1.645-.715 3.3 3.3 0 0 0 .52-1.169h2.078a4.47 4.47 0 0 1-1.374 2.663 4.03 4.03 0 0 1-2.837 1.029 4.23 4.23 0 0 1-3.367-1.386 5.6 5.6 0 0 1-1.223-3.822 5.55 5.55 0 0 1 1.397-4.06m10.349 8.975V37.068h2.079V40.9h3.897v-3.832h2.079v10.024h-2.079v-4.47h-3.897v4.47zm14.03 0h-2.078V37.068h2.078zm4.645-8.974a4.685 4.685 0 0 1 6.744.422c.397.549.634 1.197.682 1.873h-2.089a2.9 2.9 0 0 0-.509-1.082 2.09 2.09 0 0 0-1.667-.65 2.04 2.04 0 0 0-1.765.92 4.5 4.5 0 0 0-.649 2.61 3.97 3.97 0 0 0 .682 2.532 2.17 2.17 0 0 0 1.732.834 1.96 1.96 0 0 0 1.645-.715 2.95 2.95 0 0 0 .52-1.169h2.078a4.46 4.46 0 0 1-1.364 2.663 4.05 4.05 0 0 1-2.847 1.029 4.22 4.22 0 0 1-3.356-1.386 5.55 5.55 0 0 1-1.223-3.821 5.53 5.53 0 0 1 1.386-4.06m12.395-1.05h2.371l3.54 10.024h-2.273l-.661-2.057h-3.691l-.671 2.057h-2.166zm-.14 6.246h2.565l-1.266-3.995zm14.907-3.118a1.98 1.98 0 0 0-1.17-1.429 2.8 2.8 0 0 0-1.147-.227 2.46 2.46 0 0 0-1.981.92 4.1 4.1 0 0 0-.791 2.739 3.4 3.4 0 0 0 .856 2.62c.512.49 1.196.762 1.905.758a2.5 2.5 0 0 0 1.732-.596c.455-.417.749-.98.834-1.591h-2.295v-1.667h4.178v5.413h-1.385l-.238-1.321a4.8 4.8 0 0 1-1.083.996 3.77 3.77 0 0 1-2.035.509 4.23 4.23 0 0 1-3.248-1.375 5.28 5.28 0 0 1-1.321-3.8 5.6 5.6 0 0 1 1.332-3.897 5.14 5.14 0 0 1 6.614-.498 3.55 3.55 0 0 1 1.332 2.414zm13.207 6.008a5.2 5.2 0 0 1-6.571 0 5.4 5.4 0 0 1-1.516-4.135 5.35 5.35 0 0 1 1.516-4.135 5.194 5.194 0 0 1 6.571 0 5.3 5.3 0 0 1 1.515 4.135 5.4 5.4 0 0 1-1.515 4.135m-1.31-1.472a5 5 0 0 0 0-5.218 2.36 2.36 0 0 0-1.97-.92 2.42 2.42 0 0 0-1.992.92 4.99 4.99 0 0 0 0 5.218 2.42 2.42 0 0 0 1.992.92 2.36 2.36 0 0 0 1.97-.92M11.172 11.183l.228-1.18h1.656v5.326h-1.353v-4.146zm6.55.109a1.255 1.255 0 0 1-.834 1.201 1.42 1.42 0 0 1 1.083 1.386c0 1.082-1.083 1.591-2.003 1.591s-2.013-.498-2.013-1.591a1.42 1.42 0 0 1 1.082-1.386 1.27 1.27 0 0 1-.833-1.202A1.615 1.615 0 0 1 16 9.788a1.6 1.6 0 0 1 1.721 1.504m-2.37 0a.584.584 0 1 0 1.157 0 .585.585 0 1 0-1.158 0m0 2.381a.627.627 0 1 0 1.233.076.627.627 0 0 0-1.223-.264.6.6 0 0 0-.022.264zm3.281-2.349v-1.277h4.33l-2.933 5.283h-1.591l2.327-4.006zm8.639 1.342c0 1.343-.639 2.772-2.165 2.772s-2.165-1.43-2.165-2.772.65-2.771 2.165-2.771 2.165 1.386 2.165 2.771m-3.01 0c0 .498.163 1.602.845 1.602s.855-1.082.855-1.602-.162-1.591-.855-1.591-.844 1.04-.844 1.591M13.53 24.034s.54.4-.434 2.728c-.194.465-1.082 2.165 0 3.247a2.01 2.01 0 0 0 1.917.53c.075.445.108.672.108.672h-.855c-.78 0-.812.899-.812.899v3.637l.595.596h1.992c0-.899-1.083-1.278-1.083-1.278V33.54h1.82c.963-.076 1.493-1.949 1.493-1.949l.704.076a21 21 0 0 1-1.007 2.024l2.165 2.025v.595h2.187c.108-.563-1.007-1.083-1.007-1.083l-1.45-1.57c-.184-.205-.055-.41.194-.497.25-.087.498-.152.812-.27a2.013 2.013 0 0 0 1.083-2.567c-.541-1.58-2.37-.93-2.37-1.082s.962-2.425.962-2.425l-.779-1.17.931.607 2.436-.509c.26 2.1 1.234 1.57 1.234 1.57v-1.57a1.52 1.52 0 0 0-.974-1.342 7 7 0 0 0-2.23-.228.294.294 0 0 1-.239-.378h1.473l1.299-1.083.703-.076c1.3-.216.823-1.234.823-1.234H23.36a8.1 8.1 0 0 0-2.533 1.353 1.85 1.85 0 0 1 1.083-2.024c1.385-.52 1.082-.931 1.082-.931l-1.299.444s-.151-.152.076-.488a4.8 4.8 0 0 1 1.18-.508.736.736 0 0 0 .563-.964l-1.45.14c-.336-.291-.304-.335-.78-.41-.477-.076-1.234.606-1.159.378q.172-.766.25-1.548c.064-.606-1.895 2.166-1.895 2.166-2.533 4.828-1.83 8.086-1.83 8.086a3.25 3.25 0 0 0-1.667 2.165c0-2.717.888-2.522.845-4.243s-1.852-1.56-1.852-1.56a1.01 1.01 0 0 0-.93.445s.335-.065.486.13"/>
  <path fill="#fff" d="M28.104 36.386a3.62 3.62 0 0 1-2.739-1.148 3.93 3.93 0 0 1-1.201-2.695v-2.826a.5.5 0 0 1-.369-.433c0-.433.433-.368.433-.368h.91c0 .964.552.855.552.855.639 0 .498-.855.498-.855h3.767s-.13.877.51.855c0 0 .584.109.54-.855h.91s.454-.065.433.368a.48.48 0 0 1-.357.433v2.826a3.97 3.97 0 0 1-1.191 2.695 3.6 3.6 0 0 1-2.728 1.148z"/>
  <path fill="#fff" d="M42.505 24.055s-.542.4.433 2.728c.194.466 1.082 2.165 0 3.248a2.01 2.01 0 0 1-1.916.53c-.076.444-.12.672-.12.672h.856c.79 0 .822.898.822.898v3.638l-.595.595h-1.949c0-.898 1.083-1.277 1.083-1.277V33.56h-1.786c-.975-.076-1.494-1.948-1.494-1.948l-.704.076q.449 1.039 1.007 2.024l-2.165 2.024v.596h-2.263c-.108-.563 1.007-1.083 1.007-1.083l1.45-1.57c.185-.205.055-.411-.194-.498-.25-.086-.498-.151-.812-.27a2.025 2.025 0 0 1-1.083-2.566c.552-1.58 2.382-.93 2.382-1.082s-.964-2.415-.964-2.415l.78-1.169-.931.606-2.458-.52c-.26 2.101-1.223 1.57-1.223 1.57v-1.57a1.52 1.52 0 0 1 .964-1.342 7 7 0 0 1 2.23-.227.29.29 0 0 0 .25-.253.3.3 0 0 0-.012-.126h-1.462l-1.299-1.082-.703-.076c-1.31-.217-.823-1.234-.823-1.234h1.862a8 8 0 0 1 2.522 1.353 1.84 1.84 0 0 0-1.082-2.025c-1.375-.52-1.083-.93-1.083-.93l1.267.53s.151-.152-.076-.487a4.8 4.8 0 0 0-1.148-.596.737.737 0 0 1-.552-.963l1.45.14c.337-.292.293-.335.78-.41.487-.077 1.234.605 1.159.378a13 13 0 0 1-.228-1.57c-.065-.606 1.895 2.166 1.895 2.166 2.533 4.828 1.83 8.086 1.83 8.086a3.25 3.25 0 0 1 1.667 2.165c0-2.717-.888-2.522-.856-4.243s1.862-1.56 1.862-1.56a1.01 1.01 0 0 1 .931.445s-.357-.044-.508.151m-14.206 1.602v-7.275a.37.37 0 0 0 .195-.303.37.37 0 0 0-.369-.368.368.368 0 0 0-.184.682v7.264l-2.381 2.447v.8h.357v-.649l2.23-2.284 2.23 2.284v.65h.282v-.769z"/>
  <path fill="#eaaa00" d="M27.931 1.397v2l3-2zm16 14h2v-2zm-10.663-14-5.337 4.66v2.34l8-7zm5.067 0-10.404 9.602v2.398l13-12zm5.132 0-15.536 14h2.584l15.416-14zm-10.536 14h2.62l10.38-9.603V3.397zm5 0h2.7l5.3-4.667V8.397z"/>
  <path fill="#fff" d="M6.745 3.595 5.11 4.2c-1.083.4-2.165.78-3.053 1.082s-.855.433-.899.942H.91V3.898h.25v.249c.054.335.14.357.476.249.335-.109.812-.303 1.266-.488V2.274c-.26-.108-.757-.27-1.082-.39-.325-.119-.585-.087-.628.303v.238h-.25V.465h.249c.065.553.097.65.898.954l4.59 1.786zm-3.4-1.18V3.81l1.938-.693zm3.302 6.83a3.5 3.5 0 0 1-.78 2.469 2.62 2.62 0 0 1-1.84.747C1.862 12.46.91 10.783.91 8.715V6.55h.25c0 .725.119.8 1.082.8H5.36c.953 0 1.028-.075 1.082-.724h.25zm-4.395-.909c-.812 0-.985.087-.985.769 0 1.461 1.082 2.219 2.5 2.219 1.884 0 2.545-.953 2.545-2.36a1.3 1.3 0 0 0-.087-.574c0-.054-.195-.054-.433-.054zM6.647 20.85l-4.211 1.96 4.211 1.84v1.678h-.205c-.076-.714-.109-.747-1.083-.736l-3.085.087c-.986 0-1.007 0-1.083.768H.942V23.98h.249c.065.693.087.715 1.083.704h3.388L1.03 22.615v-.27l4.427-1.928H3.172a12 12 0 0 0-1.548 0c-.336 0-.411.217-.455.802H.92v-2.166h.25c0 .444.118.617.454.682s.78.109 1.635.163l1.818.086c1.17.065 1.256 0 1.332-.757h.25zm.119 9.083-1.634.639c-1.083.411-2.166.812-3.043 1.158-.876.347-.833.433-.887.942h-.25v-2.328h.239v.25c0 .335.14.346.476.238.336-.109.812-.314 1.267-.498v-1.635c-.27-.108-.758-.26-1.137-.379-.379-.12-.584-.087-.617.303v.25H.942v-1.96h.249c.076.54.119.638.91.942l4.557 1.72zm-3.42-1.082v1.407l1.937-.715zm2.338 3.767c.909-.282.952-.368.79-1.083l.238-.076.736 2.371-.238.076c-.238-.585-.325-.628-1.234-.346l-2.717.855a2.53 2.53 0 0 1-2.458-.13A3.3 3.3 0 0 1 0 33.419l.206-.173a1.54 1.54 0 0 0 1.364.54 7.6 7.6 0 0 0 1.505-.356zm2.165 7.524a2.944 2.944 0 0 1-4.19-1.018 2.804 2.804 0 0 1 1.083-3.95 3.01 3.01 0 0 1 4.233 1.082 2.78 2.78 0 0 1-1.126 3.886m-2.317-4.07c-1.375.812-2.09 2.035-1.45 3.117.465.79 1.483 1.018 2.912.174s2.1-2.079 1.505-3.096c-.477-.867-1.614-1.04-2.967-.195m11.811 7.762c0 .13-.38.704-.617 1.191l-.238-.13c.128-.265.18-.562.151-.855 0-.206-.26-.4-.725-.693l-.368-.227c-.293-.184-.303-.184-.477.076l-.985 1.59.639.401c.639.401.682.369 1.082-.162l.239.152-.942 1.58-.238-.14c.292-.64.292-.683-.347-1.083l-.638-.411-.78 1.234c-.27.433-.368.66-.292.844.168.231.391.417.65.541.282.24.647.361 1.017.336.313-.123.602-.299.855-.52l.195.184q-.511.57-1.082 1.083l-3.649-2.295.14-.206c.661.357.77.336 1.268-.465l1.645-2.62c.509-.812.487-.91-.054-1.31l.13-.206zm2.024.811.13 4.634 3.356-3.14 1.538.66-.098.228c-.682-.217-.736-.206-1.082.693l-1.148 2.88c-.368.909-.346.941.282 1.288l-.098.227-2.262-.974.097-.228c.66.206.693.206 1.082-.703l1.31-3.129-3.659 3.432-.238-.098v-4.839l-.953 2.079q-.405.679-.714 1.407c-.098.314 0 .455.563.736l-.098.228-1.927-.834.109-.216c.411.14.606.13.8-.163.196-.292.412-.671.791-1.429l.812-1.635c.52-1.082.498-1.158-.173-1.526l.097-.227zm13.684 1.17a3.47 3.47 0 0 1 2.62-.173 2.62 2.62 0 0 1 1.353 1.429c.79 2.024-.422 3.529-2.35 4.33l-2.013.79-.086-.227c.66-.314.693-.411.346-1.3l-1.082-2.868c-.347-.888-.433-.931-1.083-.747l-.097-.227zm.78 4.406c.324.747.465.866 1.082.606a2.167 2.167 0 0 0 1.083-3.172c-.736-1.732-1.873-1.96-3.172-1.407-.186.06-.356.16-.498.292 0 .065 0 .206.13.422zm5.759-7.2c.076.12.411.682.704 1.083l-.228.14a1.55 1.55 0 0 0-.66-.562c-.195-.065-.476 0-.964.26l-.39.205c-.302.152-.313.163-.172.444l.855 1.667.682-.346c.67-.346.66-.4.433-1.083l.249-.13.855 1.668-.249.13c-.4-.585-.433-.607-1.083-.26l-.682.346.64 1.397c.237.454.378.66.573.693.287-.031.562-.131.801-.293.4-.195.747-.411.812-.693.06-.329.06-.666 0-.996l.26-.075q.225.672.379 1.364l-3.833 1.97-.108-.217c.65-.4.682-.498.25-1.342l-1.408-2.75c-.444-.844-.53-.877-1.159-.617l-.108-.216zm2.717-1.688.13.217c-.541.39-.563.487 0 1.299l1.624 2.63c.498.812.596.834 1.191.53l.13.207-2.165 1.31-.13-.206c.552-.412.574-.509.076-1.32l-1.624-2.632c-.455-.8-.596-.8-1.213-.508l-.13-.217zm10.155-5.553c.246.095.505.157.768.184a7 7 0 0 1-.238 1.948 2.93 2.93 0 0 1-3.8 2.165 3.065 3.065 0 0 1-1.883-4.113 7.6 7.6 0 0 1 .736-1.538c.292.076.747.163 1.407.303v.282a1.525 1.525 0 0 0-1.873 1.234c-.379 1.158.25 2.241 1.776 2.739 1.288.411 2.803.292 3.301-1.234.075-.186.104-.386.087-.585 0-.184-.13-.303-.465-.411l-.704-.227c-.574-.184-.639-.163-.996.703l-.238-.076.757-2.327.25.076c-.076.465 0 .508.54.693zm-4.038-4.666h.249c0 .714 0 .79.953.92l3.042.433c.508.075.757 0 .887-.076.137-.21.215-.453.228-.704 0-.4.173-1.461 0-1.678a2.5 2.5 0 0 0-.823-.552l.097-.27c.271.086 1.083.41 1.386.52l-.671 4.73h-.25c0-.736 0-.823-.952-.953l-3.053-.433c-.952-.14-1.082-.075-1.18.617h-.249zm3.258-7.947a2.935 2.935 0 0 1 2.89 3.248 2.793 2.793 0 0 1-3.085 2.685 3.01 3.01 0 0 1-2.88-3.248 2.77 2.77 0 0 1 3.075-2.685m-.4 4.71c1.591.118 2.88-.51 2.955-1.755.065-.92-.65-1.678-2.306-1.786-1.83-.13-2.912.53-2.987 1.71-.066.932.8 1.733 2.338 1.83m-2.555-7.351a2.63 2.63 0 0 1 .303-1.45 1.29 1.29 0 0 1 1.082-.585 1.61 1.61 0 0 1 1.527 1.18c.249-.14.866-.487 1.256-.769q.52-.33.985-.736c.195-.154.335-.366.4-.606h.239v.368a1.78 1.78 0 0 1-.812 1.613c-.412.282-.975.574-1.43.823a.51.51 0 0 0-.335.52v.281h1.18c.953 0 1.083-.076 1.083-.747h.249v2.49h-.25c0-.704-.118-.78-1.082-.78h-3.064c-.952 0-1.082.076-1.082.747h-.25zm2.934.671v-.281a1.27 1.27 0 0 0-.228-.834 1.4 1.4 0 0 0-1.082-.476 1.148 1.148 0 0 0-1.245 1.202c0 .422 0 .444.324.444zm-2.934-6.776h.249c.054.671.13.747 1.083.747h3.085c.953 0 1.082-.076 1.082-.747h.25v2.49h-.25c0-.682-.119-.758-1.082-.758h-3.085c-.953 0-1.083.076-1.083.758h-.25zm-.065-3.497 1.635-.607c1.082-.4 2.165-.779 3.052-1.082.888-.303.856-.433.899-.942h.249v2.328h-.249v-.25c0-.335-.14-.357-.476-.248s-.812.303-1.267.487v1.645c.26.109.758.271 1.083.39.324.12.584.087.627-.303v-.238h.25v1.96h-.25c-.064-.553-.097-.65-.898-.953l-4.59-1.83zm3.4 1.19v-1.407l-1.939.693zm-3.335-6.18 4.265-1.949-4.21-1.851V.466h.248c.076.714.108.758 1.083.736l3.085-.087c.985 0 1.007-.054 1.083-.768h.249v2.457h-.25c-.064-.682-.086-.714-1.082-.704h-3.389l4.602 2.003v.26l-4.428 1.938 2.295.065a11 11 0 0 0 1.537 0c.336 0 .411-.217.455-.801h.249v2.09h-.25c0-.445-.118-.618-.454-.672a12 12 0 0 0-1.635-.163l-1.873.022c-1.169-.065-1.255 0-1.331.758h-.25zm-21.045 45.23a.963.963 0 1 0 0-1.927.963.963 0 0 0 0 1.927m18.392-8.173a.964.964 0 1 0 0-1.928.964.964 0 0 0 0 1.927M3.832 17.03a.964.964 0 1 0 0-1.928.964.964 0 0 0 0 1.927m8.185 22.777c.418.301.739.72.92 1.202a1.29 1.29 0 0 1-.325 1.212 1.6 1.6 0 0 1-1.895.347c-.054.281-.216.963-.27 1.45q-.109.601-.12 1.213c-.014.25.046.499.174.714l-.173.141-.303-.27a1.72 1.72 0 0 1-.65-1.678c.065-.488.227-1.083.347-1.614a.51.51 0 0 0-.152-.595l-.216-.184-.79.877c-.64.704-.629.801-.174 1.288l-.162.184-1.787-1.656.163-.184c.563.433.66.422 1.299-.282l2.068-2.284c.638-.704.638-.801.173-1.288l.162-.184zm-2.458 1.678.25.227c.203.215.475.352.768.39a1.42 1.42 0 0 0 1.082-.52 1.136 1.136 0 0 0-.065-1.72c-.313-.282-.346-.271-.54-.066z"/>
</svg>