<svg xmlns="http://www.w3.org/2000/svg" fill="none" viewBox="0 0 219 42">
  <path fill="#fff" d="M0 0h219v42H0z"/>
  <path fill="#231F20" d="M34.802 24.471v-.628c1.85-.109 1.986-.244 1.986-2.287v-6.34c0-2.042-.162-2.151-1.855-2.26v-.629h5.89v.629c-1.819.109-1.98.218-1.98 2.26v6.424c0 1.06.13 1.605.506 1.797.375.192.925.218 1.898.218.973 0 1.877-.192 2.3-.68a4.735 4.735 0 0 0 .899-1.824l.685.083c-.131.624-.528 2.718-.685 3.237h-9.644Zm10.543-5.786c0-4.573 3.49-6.672 6.284-6.672 3.805 0 6.261 2.75 6.261 6.262 0 4.277-3.142 6.546-6.235 6.546a6.108 6.108 0 0 1-6.31-6.136Zm6.545 5.31c2.034 0 3.644-1.36 3.644-5.175 0-3.102-1.48-5.986-4.12-5.986-2.138 0-3.67 1.876-3.67 5.197-.021 3.526 1.51 5.952 4.124 5.952l.022.013Zm8.593.476v-.628c1.902-.135 2.037-.27 2.037-2.256v-1.663a1.999 1.999 0 0 0-.401-1.278c-.554-1.008-1.31-2.26-2.51-4.329-.684-1.2-.872-1.226-2.059-1.361v-.629h5.285v.629l-.82.109c-.607.078-.634.244-.367.79.126.27 1.82 3.264 2.452 4.328.82-1.444 1.636-3.268 2.06-4.167.344-.764.292-.873-.437-.951l-.763-.11v-.628h4.651v.629c-1.427.135-1.531.327-2.247 1.387s-1.505 2.37-2.378 3.95c-.279.38-.431.837-.437 1.309v1.963c0 1.986.162 2.121 2.117 2.256v.629l-6.183.021Zm8.457-5.786c0-4.573 3.49-6.672 6.288-6.672 3.8 0 6.261 2.75 6.261 6.262 0 4.277-3.146 6.546-6.235 6.546a6.11 6.11 0 0 1-6.315-6.136Zm6.545 5.31c2.033 0 3.644-1.36 3.644-5.175 0-3.102-1.48-5.986-4.12-5.986-2.142 0-3.674 1.876-3.674 5.197-.017 3.526 1.514 5.952 4.133 5.952l.017.013Zm6.93.476v-.628c1.845-.109 1.976-.244 1.976-2.287v-6.34c0-2.042-.157-2.151-1.846-2.26v-.629h5.891v.629c-1.824.109-1.98.218-1.98 2.26v6.424c0 1.06.13 1.605.501 1.797.371.192.925.218 1.903.218.977 0 1.872-.192 2.295-.68.43-.535.737-1.158.899-1.824l.685.083c-.13.624-.524 2.718-.685 3.237h-9.64Zm18.074-.628.502-.052c.742-.083.977-.301.436-1.58l-.899-2.182h-3.67c-.187.437-.637 1.715-.898 2.531-.32.925-.08 1.196.685 1.253l.606.052v.628h-4.59v-.65c1.16-.135 1.614-.244 2.378-2.12l3.927-9.557.659-.166 3.927 10.037c.633 1.605 1.139 1.715 2.3 1.793v.628h-5.363v-.615Zm-3.33-4.76h3.055l-1.531-4.142h-.053l-1.47 4.141Zm-62.357 7.858h.873v2.483c-.018.206.01.413.083.607a.821.821 0 0 0 1.309 0 1.4 1.4 0 0 0 .096-.607v-2.483h.873v2.488a2.09 2.09 0 0 1-.197.999 1.863 1.863 0 0 1-2.845 0 2.03 2.03 0 0 1-.2-1l.008-2.487Zm4.774 0h.873l1.605 2.82v-2.82h.786v4.041h-.825l-1.645-2.867v2.867h-.785l-.01-4.04Zm5.612 4.041h-.838v-4.04h.838v4.04Zm3.87-4.041h.873l-1.37 4.041h-.799l-1.383-4.04h.899l.873 3.054.907-3.055Zm4.862.716h-2.134v.873h1.959v.702h-1.96v1.039h2.235v.724h-3.055v-4.054h2.963l-.009.716Zm3.984-.611a1.114 1.114 0 0 1 .58.624c.056.139.083.287.078.437a1.236 1.236 0 0 1-.148.567.81.81 0 0 1-.48.393.744.744 0 0 1 .397.318c.091.198.132.415.118.633v.27c-.003.127.004.254.022.38a.323.323 0 0 0 .157.227v.1h-.934a1.64 1.64 0 0 1-.052-.214 1.853 1.853 0 0 1-.04-.349v-.401a.76.76 0 0 0-.135-.515.663.663 0 0 0-.48-.13h-.825v1.583h-.824v-4.028h1.95c.21 0 .418.035.616.105Zm-1.746.598v1.078h.908c.14.007.28-.015.41-.066a.458.458 0 0 0 .24-.436.506.506 0 0 0-.236-.493.802.802 0 0 0-.388-.074l-.934-.01Zm4.246 2.094a.794.794 0 0 0 .157.41.872.872 0 0 0 .716.254c.168.004.336-.02.497-.07a.467.467 0 0 0 .362-.467.354.354 0 0 0-.179-.31 1.906 1.906 0 0 0-.558-.187l-.437-.096c-.306-.055-.6-.16-.872-.31a.995.995 0 0 1-.406-.873 1.151 1.151 0 0 1 .397-.899 1.702 1.702 0 0 1 1.174-.362c.395-.011.783.108 1.104.34a1.2 1.2 0 0 1 .48.982h-.812a.58.58 0 0 0-.327-.52 1.144 1.144 0 0 0-.502-.1.951.951 0 0 0-.532.131.436.436 0 0 0-.201.371.35.35 0 0 0 .196.323c.172.078.352.133.537.166l.711.166c.251.05.489.15.699.297a.981.981 0 0 1 .357.824 1.173 1.173 0 0 1-.436.921c-.349.26-.779.388-1.213.362-.447.026-.89-.1-1.257-.358a1.199 1.199 0 0 1-.436-.99l.78-.005Zm4.673 1.244h-.837v-4.04h.837v4.04Zm4.565-4.041v.716h-1.209v3.325h-.846v-3.325h-1.218v-.716h3.273Zm3.185 0h.956l-1.353 2.527v1.514h-.842v-1.514l-1.4-2.527h.994l.843 1.746.802-1.746Zm4.534.424a1.656 1.656 0 0 1 1.244-.498 1.675 1.675 0 0 1 1.475.668c.16.221.255.482.275.755h-.847a1.092 1.092 0 0 0-.205-.437.84.84 0 0 0-.668-.261.819.819 0 0 0-.71.37 1.812 1.812 0 0 0-.263 1.052c-.026.362.07.722.275 1.021a.874.874 0 0 0 .698.336.799.799 0 0 0 .664-.288c.1-.141.171-.302.21-.471h.837c-.056.41-.251.79-.554 1.073a1.62 1.62 0 0 1-1.143.415 1.707 1.707 0 0 1-1.358-.559 2.26 2.26 0 0 1-.493-1.54 2.234 2.234 0 0 1 .563-1.636Zm4.172 3.617v-4.04h.838v1.544h1.57v-1.545h.839v4.041h-.838V29.18H82.37v1.802h-.838Zm5.655 0h-.837v-4.04h.837v4.04Zm1.872-3.617a1.889 1.889 0 0 1 2.72.17c.16.221.254.482.274.755h-.842a1.152 1.152 0 0 0-.205-.437.843.843 0 0 0-.672-.261.82.82 0 0 0-.712.37 1.81 1.81 0 0 0-.261 1.052c-.027.362.07.722.275 1.021a.873.873 0 0 0 .698.336.79.79 0 0 0 .663-.288 1.2 1.2 0 0 0 .21-.471h.837c-.054.41-.248.79-.55 1.073a1.63 1.63 0 0 1-1.147.415 1.702 1.702 0 0 1-1.353-.559 2.238 2.238 0 0 1-.493-1.54 2.23 2.23 0 0 1 .559-1.636Zm4.997-.424h.956l1.426 4.041h-.916l-.266-.829h-1.488l-.27.83h-.873l1.43-4.042ZM94 29.46h1.034l-.51-1.61L94 29.46Zm6.009-1.257a.793.793 0 0 0-.471-.576 1.14 1.14 0 0 0-.463-.092.99.99 0 0 0-.798.37c-.235.319-.348.71-.319 1.105a1.366 1.366 0 0 0 .345 1.056 1.1 1.1 0 0 0 .768.305c.255.011.504-.074.698-.24a1.07 1.07 0 0 0 .336-.641h-.925v-.672h1.684V31h-.558l-.096-.533a1.92 1.92 0 0 1-.437.402 1.518 1.518 0 0 1-.82.205 1.706 1.706 0 0 1-1.31-.554 2.13 2.13 0 0 1-.531-1.532 2.256 2.256 0 0 1 .536-1.571 2.072 2.072 0 0 1 2.666-.2 1.43 1.43 0 0 1 .537.972l-.842.014Zm5.324 2.421a2.096 2.096 0 0 1-2.649 0 2.18 2.18 0 0 1-.611-1.667c-.023-.305.02-.612.126-.899.105-.288.27-.55.485-.767a2.095 2.095 0 0 1 2.649 0 2.135 2.135 0 0 1 .611 1.666 2.181 2.181 0 0 1-.611 1.667Zm-.528-.593a2.013 2.013 0 0 0 0-2.103.953.953 0 0 0-.794-.371.976.976 0 0 0-.803.37 2.012 2.012 0 0 0 0 2.104.972.972 0 0 0 .803.37.95.95 0 0 0 .794-.37Z"/>
  <path fill="#8D0034" d="M26.384 12.327v11.595c0 4.254-7.226 6.035-7.226 6.035s-7.222-1.79-7.222-6.035V12.327h14.448Z"/>
  <path fill="#fff" d="m12.342 16.342.091-.476h.668v2.147h-.545v-1.671h-.214Zm2.64.044a.506.506 0 0 1-.336.484.57.57 0 0 1 .436.558c0 .437-.436.642-.807.642-.37 0-.812-.2-.812-.642a.572.572 0 0 1 .437-.558.51.51 0 0 1-.336-.485.652.652 0 0 1 .724-.606.646.646 0 0 1 .694.607Zm-.956 0a.234.234 0 0 0 .136.246.235.235 0 0 0 .323-.147.234.234 0 0 0 .008-.1.234.234 0 0 0-.136-.246.236.236 0 0 0-.33.247Zm0 .96a.253.253 0 1 0 .498.03.254.254 0 0 0-.251-.286.252.252 0 0 0-.251.286l.004-.03Zm1.322-.947v-.515h1.746l-1.183 2.13h-.641l.938-1.615h-.86Zm3.482.541c0 .54-.257 1.117-.872 1.117s-.873-.576-.873-1.117.262-1.117.873-1.117c.61 0 .873.558.873 1.117Zm-1.212 0c0 .2.065.646.34.646s.345-.437.345-.646c0-.21-.066-.642-.345-.642-.28 0-.34.42-.34.642Zm-4.107 4.547s.219.161-.174 1.1c-.079.187-.437.872 0 1.308a.813.813 0 0 0 .772.214l.044.27h-.345c-.314 0-.327.363-.327.363v1.466l.24.24h.803c0-.362-.437-.515-.437-.515v-.615h.733c.389-.03.603-.785.603-.785l.283.03c-.12.28-.255.552-.405.816l.872.816v.24h.882c.043-.227-.406-.436-.406-.436l-.585-.633c-.074-.083-.022-.166.079-.2.1-.036.2-.062.327-.11a.812.812 0 0 0 .436-1.034c-.218-.637-.955-.375-.955-.436s.388-.978.388-.978l-.314-.471.375.244.982-.205c.105.847.497.633.497.633v-.633a.611.611 0 0 0-.392-.54 2.83 2.83 0 0 0-.9-.092.12.12 0 0 1-.083-.055.118.118 0 0 1-.012-.098h.593l.524-.437.284-.03c.523-.087.331-.498.331-.498h-.75a3.28 3.28 0 0 0-1.021.546.747.747 0 0 1 .436-.816c.559-.21.436-.375.436-.375l-.523.178s-.061-.06.03-.196a1.93 1.93 0 0 1 .476-.205.299.299 0 0 0 .241-.263.297.297 0 0 0-.014-.125l-.585.056c-.135-.117-.122-.135-.314-.165-.192-.031-.498.244-.467.152a5.08 5.08 0 0 0 .1-.624c.026-.244-.763.873-.763.873-1.021 1.946-.738 3.26-.738 3.26a1.308 1.308 0 0 0-.672.872c0-1.095.358-1.016.34-1.71-.017-.694-.746-.628-.746-.628a.406.406 0 0 0-.375.178s.135-.026.196.053Z"/>
  <path fill="#8D0034" d="M16.409 19.418h.414l-.087-.144-.327.144Z"/>
  <path fill="#fff" d="M19.167 26.5a1.456 1.456 0 0 1-1.104-.462 1.584 1.584 0 0 1-.485-1.087v-1.138a.2.2 0 0 1-.148-.175c0-.175.175-.148.175-.148h.366c0 .388.223.344.223.344.257 0 .2-.344.2-.344h1.519s-.052.353.205.344c0 0 .236.044.218-.344h.367s.183-.026.174.148a.192.192 0 0 1-.144.175v1.139c-.015.41-.186.799-.48 1.086a1.452 1.452 0 0 1-1.1.463h.014Z"/>
  <path fill="#fff" d="M24.813 21.487s-.218.161.175 1.1c.079.187.436.872 0 1.308a.813.813 0 0 1-.772.214l-.048.27h.344c.319 0 .332.363.332.363v1.466l-.24.24h-.785c0-.362.436-.515.436-.515v-.615h-.72c-.393-.03-.602-.785-.602-.785l-.284.03c.12.28.256.552.406.816l-.873.816v.24h-.912c-.044-.227.406-.436.406-.436l.585-.633c.074-.083.021-.166-.079-.2-.1-.036-.2-.062-.327-.11a.816.816 0 0 1-.437-1.034c.223-.637.96-.375.96-.436s-.388-.973-.388-.973l.314-.472-.375.245-.99-.21c-.105.847-.494.633-.494.633v-.633a.61.61 0 0 1 .389-.54c.293-.08.596-.11.899-.092a.119.119 0 0 0 .1-.102.117.117 0 0 0-.004-.051h-.59l-.523-.437-.284-.03c-.528-.087-.331-.498-.331-.498h.75c.369.12.713.305 1.017.546a.742.742 0 0 0-.436-.816c-.555-.21-.437-.375-.437-.375l.51.213s.062-.06-.03-.196a1.948 1.948 0 0 0-.462-.24.298.298 0 0 1-.223-.388l.585.056c.135-.117.118-.135.314-.165.196-.031.497.244.467.152a5.075 5.075 0 0 1-.092-.633c-.026-.244.764.873.764.873 1.021 1.947.737 3.26.737 3.26a1.309 1.309 0 0 1 .672.873c0-1.096-.357-1.017-.344-1.71.013-.695.75-.63.75-.63a.406.406 0 0 1 .375.18s-.143-.018-.205.06Z"/>
  <path fill="#8D0034" d="M21.916 19.418H21.5l.088-.144.327.144Z"/>
  <path fill="#fff" d="M19.245 22.176v-2.932a.15.15 0 0 0 .079-.122.148.148 0 0 0-.149-.149.148.148 0 0 0-.074.275v2.928l-.96.986v.323h.144v-.261l.9-.921.898.92v.262h.114v-.31l-.952-.999Z"/>
  <path fill="#FEBC18" d="M19.175 12.327v.947l1.035-.947h-1.035Zm6.219 5.686h.986v-.947l-.986.947Zm-4.146-5.686-2.073 1.894v.951l3.107-2.845h-1.034Zm2.073 0-4.146 3.792v.947l5.18-4.739h-1.034Zm2.073 0-6.218 5.69h1.034l6.17-5.69h-.986Zm-4.146 5.686h1.034l4.098-3.792v-.947l-5.132 4.74Zm2.073 0h1.034l2.03-1.894v-.947l-3.064 2.841Z"/>
  <path fill="#8D0034" d="m10.719 13.449-.66.244c-.436.162-.872.314-1.23.437-.358.122-.345.174-.362.38h-.1v-.94h.1v.101c.022.136.057.144.192.1.135-.043.327-.122.51-.196v-.659c-.104-.043-.305-.109-.436-.157-.13-.048-.236-.035-.253.123v.095h-.1v-.79h.1c.026.223.04.263.362.385l1.85.72.027.157Zm-1.37-.476v.563l.78-.28-.78-.283Zm1.331 2.754c.025.36-.087.715-.315.994a1.056 1.056 0 0 1-.742.302c-.872 0-1.256-.677-1.256-1.51v-.873h.1c0 .292.048.323.436.323h1.257c.384 0 .415-.03.436-.292h.1l-.017 1.056Zm-1.772-.367c-.328 0-.397.035-.397.31 0 .589.436.894 1.008.894.759 0 1.025-.384 1.025-.95a.53.53 0 0 0-.035-.232c0-.022-.078-.022-.174-.022H8.908Zm1.772 5.044-1.698.79 1.697.742v.677h-.083c-.03-.288-.043-.302-.436-.297l-1.244.035c-.397 0-.405 0-.436.31h-.1v-.995h.1c.026.279.035.288.436.283h1.366l-1.867-.833v-.11l1.784-.776h-.92a4.848 4.848 0 0 0-.624 0c-.136 0-.166.087-.184.323h-.1v-.873h.1c0 .18.048.249.184.275.135.026.314.044.658.066l.734.034c.47.027.506 0 .536-.305h.1l-.004.654Zm.047 3.662-.659.257c-.436.166-.872.327-1.226.467-.353.14-.336.175-.358.38h-.1v-.939h.096v.1c0 .136.057.14.192.097.135-.044.327-.127.51-.2v-.66a7.681 7.681 0 0 0-.458-.152c-.152-.049-.235-.035-.248.122v.1H8.38v-.79h.1c.03.218.048.258.367.38l1.837.694.043.144Zm-1.379-.437v.568l.781-.288-.78-.28Zm.943 1.519c.367-.114.384-.148.319-.436l.096-.031.296.956-.096.03c-.096-.236-.13-.253-.497-.14l-1.096.345a1.021 1.021 0 0 1-.99-.052A1.31 1.31 0 0 1 8 25.47l.083-.069a.62.62 0 0 0 .55.218 3.06 3.06 0 0 0 .606-.144l1.052-.327Zm.873 3.032a1.187 1.187 0 0 1-1.69-.41 1.13 1.13 0 0 1 .437-1.592 1.212 1.212 0 0 1 1.707.436 1.122 1.122 0 0 1-.454 1.567Zm-.934-1.64c-.554.327-.842.82-.585 1.257.188.318.598.41 1.174.07.576-.34.846-.838.606-1.248-.192-.35-.65-.42-1.195-.08Zm4.76 3.129c0 .052-.152.283-.248.48l-.096-.053a.64.64 0 0 0 .061-.344c0-.083-.105-.162-.292-.28l-.149-.091c-.117-.075-.122-.075-.192.03l-.397.642.258.161c.257.162.275.149.436-.065l.096.06-.38.638-.096-.057c.118-.257.118-.275-.14-.436l-.257-.166-.314.497c-.109.175-.148.267-.118.34a.697.697 0 0 0 .262.219.572.572 0 0 0 .41.135c.126-.05.243-.12.345-.21l.079.075a5.65 5.65 0 0 1-.437.436l-1.47-.925.056-.083c.267.144.31.136.51-.187l.664-1.056c.205-.328.197-.367-.022-.528l.053-.083 1.379.85Zm.817.327.052 1.868 1.353-1.266.62.266-.04.092c-.275-.087-.297-.083-.436.28l-.463 1.16c-.148.367-.14.38.114.52l-.04.09-.912-.392.04-.091c.266.082.279.082.436-.284l.528-1.261-1.475 1.383-.096-.04v-1.95l-.384.838a4.661 4.661 0 0 0-.288.567c-.04.127 0 .184.227.297l-.04.092-.776-.336.044-.088c.165.057.244.053.323-.065a5.43 5.43 0 0 0 .318-.576l.327-.659c.21-.436.201-.467-.07-.615l.04-.092.598.262Zm5.515.471c.33-.16.709-.186 1.056-.07.25.114.446.32.546.577.319.816-.17 1.422-.947 1.745l-.812.319-.035-.092c.267-.127.28-.166.14-.524l-.436-1.156c-.14-.358-.175-.375-.437-.301l-.039-.092.964-.406Zm.315 1.776c.13.301.187.35.436.245a.873.873 0 0 0 .436-1.279c-.296-.698-.755-.79-1.278-.567a.536.536 0 0 0-.2.118c0 .026 0 .082.051.17l.555 1.313Zm2.321-2.902c.03.048.166.275.284.437l-.092.056a.624.624 0 0 0-.266-.226c-.079-.027-.192 0-.388.104l-.157.083c-.123.061-.127.066-.07.18l.344.671.275-.14c.27-.14.266-.16.175-.436l.1-.052.345.672-.1.052c-.162-.236-.175-.244-.437-.105l-.275.14.258.563c.096.183.152.266.231.28a.713.713 0 0 0 .323-.119c.161-.078.301-.165.327-.279a1.115 1.115 0 0 0 0-.401l.105-.03c.06.18.111.363.153.549l-1.545.794-.044-.087c.262-.161.275-.2.1-.541l-.567-1.109c-.178-.34-.213-.353-.466-.248l-.044-.088 1.431-.72Zm1.095-.681.053.088c-.218.157-.227.196 0 .524l.654 1.06c.201.327.24.336.48.214l.053.083-.873.528-.052-.083c.222-.166.23-.205.03-.533l-.654-1.06c-.184-.323-.24-.323-.49-.205l-.052-.087.851-.528Zm4.094-2.238c.1.038.203.063.31.074.005.265-.028.53-.097.786a1.183 1.183 0 0 1-1.531.872 1.236 1.236 0 0 1-.76-1.658 3.1 3.1 0 0 1 .297-.62c.118.031.301.066.567.123v.113a.617.617 0 0 0-.754.498c-.153.467.1.903.715 1.104.52.166 1.13.118 1.331-.498a.514.514 0 0 0 .035-.235c0-.075-.052-.123-.188-.166l-.283-.092c-.232-.074-.258-.065-.402.284l-.096-.03.306-.939.1.03c-.03.188 0 .206.218.28l.232.074Zm-1.628-1.881h.1c0 .288 0 .319.384.371l1.227.175c.205.03.305 0 .357-.03a.572.572 0 0 0 .092-.284c0-.162.07-.59 0-.677a1.022 1.022 0 0 0-.332-.222l.04-.11c.109.035.436.166.558.21l-.27 1.907h-.1c0-.297 0-.332-.385-.384l-1.23-.175c-.384-.056-.437-.03-.476.25h-.1l.135-1.03Zm1.313-3.203a1.182 1.182 0 0 1 1.165 1.31 1.126 1.126 0 0 1-1.243 1.082 1.214 1.214 0 0 1-1.16-1.31 1.118 1.118 0 0 1 1.238-1.082Zm-.161 1.899c.641.048 1.16-.205 1.191-.707.026-.371-.262-.677-.93-.72-.737-.053-1.173.213-1.204.69-.026.374.323.697.943.737Zm-1.03-2.963a1.06 1.06 0 0 1 .122-.585.52.52 0 0 1 .437-.236.65.65 0 0 1 .615.476c.1-.057.349-.196.506-.31.14-.089.272-.188.397-.297a.466.466 0 0 0 .162-.244h.096v.148a.715.715 0 0 1-.328.65c-.165.114-.392.232-.576.332a.205.205 0 0 0-.135.21v.113h.476c.384 0 .436-.03.436-.301h.1v1.004h-.1c0-.284-.048-.315-.436-.315h-1.235c-.384 0-.437.031-.437.302h-.1v-.947Zm1.183.27v-.113a.51.51 0 0 0-.092-.336.566.566 0 0 0-.436-.192.462.462 0 0 0-.502.484c0 .17 0 .179.13.179l.9-.022Zm-1.183-2.731h.1c.022.27.053.3.437.3h1.244c.383 0 .436-.03.436-.3h.1v1.003h-.1c0-.275-.048-.305-.436-.305h-1.244c-.384 0-.437.03-.437.305h-.1v-1.003Zm-.026-1.41.659-.244c.436-.162.873-.315 1.23-.437.358-.122.345-.174.363-.38h.1v.939h-.1v-.1c0-.136-.057-.145-.192-.1-.136.043-.328.121-.511.195v.664c.105.043.305.109.436.157s.236.035.253-.122v-.096h.1v.79h-.1c-.026-.223-.039-.262-.362-.384l-1.85-.738-.026-.144Zm1.37.48v-.567l-.781.279.781.288Zm-1.344-2.492 1.72-.785-1.698-.746v-.672h.1c.03.288.044.305.437.296l1.243-.034c.397 0 .406-.022.437-.31h.1v.99h-.1c-.026-.275-.035-.288-.437-.283h-1.366l1.855.807v.105l-1.785.78.925.027c.207.014.414.014.62 0 .135 0 .166-.087.183-.323h.1v.842h-.1c0-.179-.048-.249-.183-.27a4.836 4.836 0 0 0-.659-.066l-.755.009c-.471-.026-.506 0-.537.305h-.1v-.672Zm-8.483 18.232a.388.388 0 1 0 0-.777.388.388 0 0 0 0 .777Zm7.414-3.295a.388.388 0 1 0 0-.776.388.388 0 0 0 0 .776ZM9.545 18.864a.388.388 0 1 0 0-.777.388.388 0 0 0 0 .777Zm3.299 9.181c.168.122.298.29.37.485a.52.52 0 0 1-.13.488.646.646 0 0 1-.764.14c-.022.114-.087.389-.109.585-.03.161-.045.325-.048.489-.006.1.018.2.07.288l-.07.056-.122-.109a.694.694 0 0 1-.262-.676c.026-.197.092-.436.14-.65a.205.205 0 0 0-.062-.24l-.087-.075-.318.354c-.258.284-.253.323-.07.52l-.066.073-.72-.667.066-.074c.227.174.266.17.523-.114l.834-.92c.257-.284.257-.324.07-.52l.065-.074.69.641Zm-.99.677.1.091a.52.52 0 0 0 .31.158.572.572 0 0 0 .436-.21.457.457 0 0 0-.026-.694c-.127-.113-.14-.109-.219-.026l-.602.68Z"/>
  <path stroke="#231F20" stroke-width=".75" d="M115.375 4v34"/>
  <path fill="#231F20" d="M208.569 25.312c-.496 0-.98-.036-1.452-.108a4.152 4.152 0 0 1-1.224-.396l.696-1.404c.248.12.548.224.9.312s.712.132 1.08.132c.256 0 .444-.04.564-.12.128-.088.192-.224.192-.408 0-.2-.084-.348-.252-.444-.168-.104-.524-.244-1.068-.42a8.26 8.26 0 0 1-.816-.324 2.09 2.09 0 0 1-.576-.396 1.51 1.51 0 0 1-.348-.552c-.08-.216-.12-.48-.12-.792 0-.768.236-1.308.708-1.62.48-.312 1.092-.468 1.836-.468.48 0 .876.028 1.188.084.312.056.62.148.924.276l-.696 1.5a4.35 4.35 0 0 0-.684-.204 3.753 3.753 0 0 0-.804-.084c-.296 0-.496.04-.6.12-.096.08-.144.2-.144.36 0 .16.076.292.228.396.152.096.468.22.948.372.344.112.64.228.888.348.248.112.452.248.612.408.16.16.276.356.348.588.08.224.12.5.12.828 0 .696-.212 1.208-.636 1.536-.424.32-1.028.48-1.812.48Zm-7 0c-.504 0-.908-.096-1.212-.288a1.923 1.923 0 0 1-.684-.768 3.51 3.51 0 0 1-.3-1.116 12.17 12.17 0 0 1-.072-1.344c0-.472.028-.92.084-1.344.056-.424.164-.792.324-1.104.168-.32.408-.572.72-.756.312-.192.72-.288 1.224-.288.48 0 .852.044 1.116.132.264.08.476.208.636.384V16h1.824v9.168l-1.452.12-.144-.624c-.176.208-.428.368-.756.48-.32.112-.756.168-1.308.168Zm.624-1.572c.528 0 .86-.164.996-.492.144-.328.216-.8.216-1.416 0-.6-.068-1.056-.204-1.368-.136-.32-.472-.48-1.008-.48-.456 0-.748.156-.876.468-.128.304-.192.764-.192 1.38 0 .624.06 1.1.18 1.428.128.32.424.48.888.48Zm-9.378 1.488v-6.696l1.452-.12.132.54c.16-.2.4-.356.72-.468.32-.12.768-.18 1.344-.18.416 0 .752.064 1.008.192.264.12.468.292.612.516.144.216.24.476.288.78.056.304.084.632.084.984v4.452h-1.824v-3.996c0-.4-.048-.7-.144-.9-.096-.2-.34-.3-.732-.3-.48 0-.788.12-.924.36s-.204.604-.204 1.092v3.744h-1.812Zm-.98-.48c-.32.176-.688.316-1.104.42a6.47 6.47 0 0 1-1.464.144c-.6 0-1.088-.08-1.464-.24a2.076 2.076 0 0 1-.888-.684c-.208-.296-.352-.66-.432-1.092a9.272 9.272 0 0 1-.108-1.488c0-.544.044-1.032.132-1.464.096-.432.252-.796.468-1.092.224-.304.524-.536.9-.696.384-.168.864-.252 1.44-.252.672 0 1.184.108 1.536.324.36.216.616.516.768.9.152.384.236.844.252 1.38.016.528.02 1.104.012 1.728h-3.756c.032.4.132.688.3.864.176.176.488.264.936.264.448 0 .804-.04 1.068-.12.264-.08.504-.172.72-.276l.684 1.38Zm-2.568-4.86c-.44 0-.736.112-.888.336-.152.216-.24.552-.264 1.008h2.172a5.635 5.635 0 0 0-.048-.588 1.04 1.04 0 0 0-.12-.42.59.59 0 0 0-.3-.252 1.482 1.482 0 0 0-.552-.084Zm-5.651-2.076v-1.644h1.824v1.644h-1.824Zm0 7.416v-6.804h1.812v6.804h-1.812Zm-4.184 0v-6.696l1.44-.12.156.636c.152-.2.368-.364.648-.492s.696-.192 1.248-.192v1.716c-.392 0-.7.048-.924.144-.216.088-.38.212-.492.372a1.214 1.214 0 0 0-.216.552 5.877 5.877 0 0 0-.036.672v3.408h-1.824Zm-6.279 0v-8.892h5.496v1.716h-3.612v1.92h3.444v1.704h-3.444v3.552h-1.884Zm-5.166 0-.408-.456c-.304.176-.66.312-1.068.408-.4.096-.86.144-1.38.144-1.024 0-1.8-.196-2.328-.588-.528-.4-.792-1.052-.792-1.956 0-.672.164-1.192.492-1.56a4.525 4.525 0 0 1 1.2-.948 5.442 5.442 0 0 1-.432-.9 2.89 2.89 0 0 1-.168-.984c0-.768.208-1.332.624-1.692.424-.36.996-.54 1.716-.54s1.276.176 1.668.528c.392.352.588.92.588 1.704 0 .568-.156 1.04-.468 1.416a4.413 4.413 0 0 1-1.08.924c.08.08.16.168.24.264l.264.288.936 1.032a5.71 5.71 0 0 0 .312-1.176c.08-.448.152-.936.216-1.464l1.524.18c-.08.768-.188 1.468-.324 2.1-.136.624-.332 1.164-.588 1.62l1.5 1.656h-2.244Zm-3.132-6.84c0 .2.032.396.096.588.072.192.168.388.288.588a2.41 2.41 0 0 0 .576-.516c.152-.192.228-.412.228-.66 0-.224-.044-.392-.132-.504-.088-.112-.244-.168-.468-.168-.224 0-.38.056-.468.168-.08.112-.12.28-.12.504Zm-1.044 4.308c0 .144.012.284.036.42.024.136.08.256.168.36.096.104.232.192.408.264.176.064.412.096.708.096.28 0 .532-.024.756-.072a2.9 2.9 0 0 0 .612-.192l-1.26-1.404c-.104-.12-.208-.236-.312-.348l-.3-.348c-.232.16-.428.34-.588.54-.152.192-.228.42-.228.684Zm-6.597-4.884v-1.644h1.824v1.644h-1.824Zm0 7.416v-6.804h1.812v6.804h-1.812Zm-6.786 0v-6.696l1.452-.12.132.54c.16-.2.4-.356.72-.468.32-.12.768-.18 1.344-.18.416 0 .752.064 1.008.192.264.12.468.292.612.516.144.216.24.476.288.78.056.304.084.632.084.984v4.452h-1.824v-3.996c0-.4-.048-.7-.144-.9-.096-.2-.34-.3-.732-.3-.48 0-.788.12-.924.36s-.204.604-.204 1.092v3.744h-1.812Zm-10.266 0v-6.696l1.452-.12.132.54c.152-.2.38-.356.684-.468.304-.12.744-.18 1.32-.18.544 0 .924.068 1.14.204.224.128.376.28.456.456.168-.2.412-.36.732-.48s.78-.18 1.38-.18c.416 0 .748.064.996.192.256.12.452.292.588.516.136.216.224.476.264.78.04.304.06.632.06.984v4.452h-1.8v-3.996c0-.4-.04-.7-.12-.9-.08-.2-.316-.3-.708-.3-.456 0-.752.116-.888.348-.128.232-.192.6-.192 1.104v3.744h-1.8v-3.996c0-.4-.04-.7-.12-.9-.08-.2-.312-.3-.696-.3-.464 0-.764.116-.9.348-.128.232-.192.6-.192 1.104v3.744h-1.788Zm-3.885.096c-.552 0-1.008-.052-1.368-.156-.36-.112-.644-.284-.852-.516a2.023 2.023 0 0 1-.444-.888 6.297 6.297 0 0 1-.12-1.32v-4.02h1.824v3.924c0 .24.004.448.012.624.016.168.056.308.12.42a.59.59 0 0 0 .3.252c.136.048.32.072.552.072.456 0 .732-.108.828-.324.096-.224.144-.576.144-1.056v-3.912h1.788v4.02c0 .512-.04.952-.12 1.32-.08.36-.224.656-.432.888-.2.232-.484.404-.852.516-.36.104-.82.156-1.38.156Zm-3.508-.096a1.163 1.163 0 0 1-.216.012 6.201 6.201 0 0 1-.444.012c-.624 0-1.092-.132-1.404-.396-.304-.264-.456-.784-.456-1.56V16h1.812v7.044c0 .256.036.424.108.504.072.072.272.108.6.108v1.572Zm-10.769 0 2.772-8.952h2.016l2.772 8.952h-1.932l-.408-1.38h-2.94l-.396 1.38H122Zm2.724-3.036h2.04l-1.008-3.372-1.032 3.372Z"/>
</svg>
