<svg xmlns="http://www.w3.org/2000/svg" xml:space="preserve" id="Layer_1" x="0" y="0" style="enable-background:new 0 0 219 42" version="1.1" viewBox="0 0 219 42">
  <style>
    .st0{fill:#fff}.st3{fill:#5a0722}
  </style>
  <path d="M219 0v42H0V0" class="st0"/>
  <path d="M115.4 4v34" style="fill:none;stroke:#231f20;stroke-width:.75"/>
  <path d="M208.6 25.3c-.5 0-1 0-1.5-.1-.4-.1-.8-.2-1.2-.4l.7-1.4c.2.1.5.2.9.3s.7.1 1.1.1c.3 0 .4 0 .6-.1.1-.1.2-.2.2-.4s-.1-.3-.3-.4c-.2-.1-.5-.2-1.1-.4-.3-.1-.5-.2-.8-.3-.2-.1-.4-.2-.6-.4-.2-.2-.3-.3-.3-.6-.1-.2-.1-.5-.1-.8 0-.8.2-1.3.7-1.6.5-.3 1.1-.5 1.8-.5.5 0 .9 0 1.2.1s.6.1.9.3l-.7 1.5c-.2-.1-.5-.2-.7-.2-.3-.1-.5-.1-.8-.1-.3 0-.5 0-.6.1-.1.1-.1.2-.1.4s.1.3.2.4c.2.1.5.2.9.4l.9.3c.2.1.5.2.6.4s.3.4.3.6c.1.2.1.5.1.8 0 .7-.2 1.2-.6 1.5-.3.4-.9.5-1.7.5zm-7 0c-.5 0-.9-.1-1.2-.3-.3-.2-.5-.5-.7-.8-.2-.4-.3-.7-.3-1.1 0-.4-.1-.9-.1-1.3 0-.5 0-.9.1-1.3s.2-.8.3-1.1c.2-.3.4-.6.7-.8.3-.2.7-.3 1.2-.3s.9 0 1.1.1c.3.1.5.2.6.4V16h1.8v9.2l-1.5.1-.1-.6c-.2.2-.4.4-.8.5-.1.1-.6.1-1.1.1zm.6-1.6c.5 0 .9-.2 1-.5.1-.3.2-.8.2-1.4 0-.6-.1-1.1-.2-1.4-.1-.3-.5-.5-1-.5s-.7.2-.9.5c-.1.3-.2.8-.2 1.4 0 .6.1 1.1.2 1.4.1.4.4.5.9.5zm-9.4 1.5v-6.7l1.5-.1.1.5c.2-.2.4-.4.7-.5.3-.1.8-.2 1.3-.2.4 0 .8.1 1 .2.3.1.5.3.6.5.1.2.2.5.3.8.1.3.1.6.1 1v4.5h-1.8v-4c0-.4 0-.7-.1-.9-.1-.2-.3-.3-.7-.3-.5 0-.8.1-.9.4s-.2.6-.2 1.1v3.7h-1.9zm-1-.5c-.3.2-.7.3-1.1.4-.5.1-1 .2-1.5.1-.6 0-1.1-.1-1.5-.2-.4-.1-.7-.4-.9-.7-.2-.3-.4-.7-.4-1.1-.1-.5-.1-1-.1-1.5s0-1 .1-1.5c.1-.4.3-.8.5-1.1.2-.3.5-.5.9-.7.4-.2.9-.3 1.4-.3.7 0 1.2.1 1.5.3.4.2.6.5.8.9.2.4.2.8.3 1.4v1.7H188c0 .4.1.7.3.9.2.2.5.3.9.3s.8 0 1.1-.1c.3-.1.5-.2.7-.3l.8 1.5zm-2.5-4.8c-.4 0-.7.1-.9.3-.2.2-.2.6-.3 1h2.2v-.6c0-.1-.1-.3-.1-.4l-.3-.3h-.6zm-5.7-2.1v-1.6h1.8v1.6h-1.8zm0 7.4v-6.8h1.8v6.8h-1.8zm-4.2 0v-6.7l1.4-.1.2.6c.2-.2.4-.4.6-.5s.7-.2 1.2-.2V20c-.4 0-.7 0-.9.1-.2.1-.4.2-.5.4-.1.2-.2.4-.2.6v4.1h-1.8zm-6.2 0v-8.9h5.5V18H175v2h3.4v1.7H175v3.6h-1.8zm-5.2 0-.4-.5c-.3.2-.7.3-1.1.4-.4.1-.9.1-1.4.1-1 0-1.8-.2-2.3-.6-.5-.4-.8-1.1-.8-2 0-.7.2-1.2.5-1.6.3-.4.7-.7 1.2-.9-.2-.3-.3-.6-.4-.9-.1-.3-.2-.6-.2-1 0-.8.2-1.3.6-1.7.4-.4 1-.5 1.7-.5s1.3.2 1.7.5.6.9.6 1.7c0 .6-.2 1-.5 1.4-.3.4-.7.7-1.1.9.1.1.2.2.2.3l.3.3.9 1c.1-.4.3-.8.3-1.2.1-.4.2-.9.2-1.5l1.5.2c-.1.8-.2 1.5-.3 2.1-.1.6-.3 1.2-.6 1.6l1.5 1.7-2.1.2zm-3.1-6.8c0 .2 0 .4.1.6l.3.6c.2-.1.4-.3.6-.5.2-.2.2-.4.2-.7 0-.2 0-.4-.1-.5s-.2-.2-.5-.2-.4.1-.5.2c-.1.1-.1.3-.1.5zm-1.1 4.3v.4c0 .1.1.3.2.4.1.1.2.2.4.3.2.1.4.1.7.1.3 0 .5 0 .8-.1.2 0 .4-.1.6-.2l-1.3-1.4-.3-.3-.3-.3c-.2.2-.4.3-.6.5-.1.1-.2.3-.2.6zm-6.6-4.9v-1.6h1.8v1.6h-1.8zm0 7.4v-6.8h1.8v6.8h-1.8zm-6.8 0v-6.7l1.5-.1.1.6c.2-.2.4-.4.7-.5.3-.1.8-.2 1.3-.2.4 0 .8.1 1 .2.3.1.5.3.6.5.1.2.2.5.3.8.1.3.1.6.1 1v4.5h-1.8v-4c0-.4 0-.7-.1-.9-.1-.2-.3-.3-.7-.3-.5 0-.8.1-.9.4s-.2.6-.2 1.1v3.7h-1.9zm-10.2 0v-6.7l1.5-.1.1.5c.2-.2.4-.4.7-.5.3-.1.7-.2 1.3-.2.5 0 .9.1 1.1.2.2.1.4.3.5.5.2-.2.4-.4.7-.5s.8-.2 1.4-.2c.4 0 .7.1 1 .2.3.1.5.3.6.5.1.2.2.5.3.8 0 .3.1.6.1 1v4.5h-1.8v-4c0-.4 0-.7-.1-.9-.1-.2-.3-.3-.7-.3-.5 0-.8.1-.9.3-.1.2-.2.6-.2 1.1v3.7H144v-4c0-.4 0-.7-.1-.9-.1-.2-.3-.3-.7-.3-.5 0-.8.1-.9.3-.1.2-.2.6-.2 1.1V25h-1.9v.2zm-3.9.1c-.6 0-1-.1-1.4-.2-.4-.1-.6-.3-.9-.5-.2-.3-.4-.6-.4-.9-.1-.4-.1-.9-.1-1.3v-4h1.8v4.5c0 .2.1.3.1.4l.3.3c.1 0 .3.1.6.1.5 0 .7-.1.8-.3.1-.2.1-.6.1-1.1v-3.9h1.8v4c0 .5 0 1-.1 1.3-.1.4-.2.7-.4.9-.2.2-.5.4-.9.5-.3.2-.8.2-1.3.2zm-3.5-.1h-.6c-.6 0-1.1-.1-1.4-.4-.3-.3-.5-.8-.5-1.6V16h1.8v7c0 .3 0 .4.1.5.1.1.3.1.6.1v1.6zm-10.8 0 2.8-9h2l2.8 9h-1.9l-.4-1.4h-2.9l-.4 1.4h-2zm2.7-3h2l-1-3.4-1 3.4z" style="fill:#231f20"/>
  <path d="M34.8 24.6V24c1.8-.1 2-.2 2-2.3v-6.3c0-2-.2-2.1-1.8-2.3v-.6h5.9v.6c-1.8.1-2 .2-2 2.3v6.4c0 1.1.1 1.6.5 1.8.4.2.9.2 1.9.2 1 0 1.9-.2 2.3-.7.3-.3.6-1 .9-1.8l.7.1c-.1.6-.5 2.7-.7 3.2h-9.7zm10.6-5.8c0-4.6 3.5-6.7 6.3-6.7 3.8 0 6.2 2.7 6.2 6.3 0 4.3-3.1 6.5-6.2 6.5-4.1 0-6.3-3.1-6.3-6.1zm6.5 5.3c2 0 3.6-1.4 3.6-5.2 0-3.1-1.5-6-4.1-6-2.1 0-3.7 1.9-3.7 5.2 0 3.6 1.6 6 4.2 6zm8.6.5V24c1.9-.1 2-.3 2-2.3V20c0-.5-.1-.7-.4-1.3-.6-1-1.3-2.3-2.5-4.3-.7-1.2-.9-1.2-2.1-1.4v-.6h5.3v.6l-.8.2c-.6.1-.6.2-.4.8.1.3 1.8 3.3 2.4 4.3.8-1.4 1.6-3.3 2.1-4.2.3-.8.3-.9-.4-.9l-.8-.1v-.6h4.6v.6c-1.4.1-1.5.3-2.2 1.4-.7 1.1-1.5 2.4-2.4 3.9-.4.7-.4.9-.4 1.3v2c0 2 .2 2.1 2.1 2.3v.6h-6.1zm8.4-5.8c0-4.6 3.5-6.7 6.3-6.7 3.8 0 6.2 2.7 6.2 6.3 0 4.3-3.1 6.5-6.2 6.5-4.1 0-6.3-3.1-6.3-6.1zm6.5 5.3c2 0 3.6-1.4 3.6-5.2 0-3.1-1.5-6-4.1-6-2.1 0-3.7 1.9-3.7 5.2.1 3.6 1.6 6 4.2 6zm7 .5V24c1.8-.1 2-.2 2-2.3v-6.3c0-2-.2-2.1-1.8-2.3v-.6h5.9v.6c-1.8.1-2 .2-2 2.3v6.4c0 1.1.1 1.6.5 1.8.4.2.9.2 1.9.2 1 0 1.9-.2 2.3-.7.3-.3.6-1 .9-1.8l.7.1c-.1.6-.5 2.7-.7 3.2h-9.7zm18-.6.5-.1c.7-.1 1-.3.5-1.6l-.9-2.2h-3.7c-.2.4-.6 1.7-.9 2.5-.3.9-.1 1.2.7 1.2l.6.1v.6h-4.6V24c1.2-.1 1.6-.2 2.4-2.1l3.9-9.5.7-.2 3.9 10c.6 1.6 1.1 1.7 2.3 1.8v.6h-5.3l-.1-.6zm-3.3-4.8h3.1l-1.5-4.1h-.1l-1.5 4.1zm-62.3 8.2h.9v2.5c0 .3 0 .5.1.6.1.2.3.3.7.3s.6-.1.7-.3c.1-.1.1-.3.1-.6v-2.5h.9v2.5c0 .4-.1.8-.2 1-.2.4-.7.7-1.4.7s-1.2-.2-1.4-.7c-.1-.2-.2-.6-.2-1-.2 0-.2-2.5-.2-2.5zm4.8 0h.9l1.6 2.8v-2.8h.8v4H42l-1.6-2.9v2.9h-.8v-4zm5.6 4.1h-.8v-4h.8v4zm3.9-4.1h.9l-1.4 4h-.8l-1.4-4h.9l.9 3.1.9-3.1zm4.8.8h-2.1v.8h2v.7h-2v1H54v.7h-3v-4h3l-.1.8zm4-.7c.1.1.3.2.4.3.1.1.2.2.2.3.1.1.1.3.1.4 0 .2-.1.4-.1.6-.1.2-.3.3-.5.4.2.1.3.2.4.3.1.1.1.3.1.6v.7c0 .1.1.2.2.2v.1h-.9c0-.1 0-.2-.1-.2v-.7c0-.3-.1-.4-.1-.5-.1-.1-.2-.1-.5-.1h-.8v1.6h-.8v-4h2.4zm-1.7.6v1.1h.9c.2 0 .3 0 .4-.1.2-.1.2-.2.2-.5 0-.2-.1-.4-.2-.5-.1 0-.2-.1-.4-.1l-.9.1zm4.2 2.1c0 .2.1.3.2.4.1.2.4.2.7.2.2 0 .4 0 .5-.1.2-.1.4-.2.4-.5 0-.1-.1-.2-.2-.3-.1-.1-.3-.1-.6-.2l-.4-.1c-.4-.1-.7-.2-.9-.3-.3-.2-.4-.5-.4-.9s.1-.7.4-.9c.3-.2.7-.4 1.2-.4.4 0 .8.1 1.1.3.3.2.5.6.5 1H62c0-.2-.1-.4-.3-.5-.1-.1-.3-.1-.5-.1s-.4 0-.5.1c-.1.1-.2.2-.2.4 0 .1.1.3.2.3s.3.1.5.2l.7.2c.3.1.5.2.7.3.2.2.4.5.4.8s-.1.7-.4.9c-.3.2-.7.4-1.2.4s-.9-.1-1.3-.4c-.3-.2-.5-.6-.5-1l.8.2zm4.7 1.3h-.8v-4h.8v4zm4.5-4.1v.7h-1.2v3.3h-.8v-3.3h-1.2v-.7h3.2zm3.2 0h1L72.4 30v1.5h-.8V30l-1.4-2.5h1l.8 1.8.8-1.9zm4.5.5c.3-.3.7-.5 1.2-.5.7 0 1.2.2 1.5.7.2.2.3.5.3.8h-.8c-.1-.2-.1-.3-.2-.4-.2-.2-.4-.3-.7-.3s-.5.1-.7.4-.3.6-.3 1c0 .5.1.8.3 1 .2.2.4.3.7.3s.5-.1.7-.3c.1-.1.2-.3.2-.5h.8c-.1.4-.3.8-.6 1.1-.3.3-.7.4-1.1.4-.6 0-1-.2-1.4-.6-.3-.4-.5-.9-.5-1.5 0-.7.2-1.2.6-1.6zm4.2 3.6v-4h.8V29h1.6v-1.5h.8v4h-.8v-1.8h-1.6v1.8h-.8zm5.6 0h-.8v-4h.8v4zm1.9-3.6c.3-.3.7-.5 1.2-.5.7 0 1.2.2 1.5.7.2.2.3.5.3.8h-.8c-.1-.2-.1-.3-.2-.4-.1-.2-.4-.3-.7-.3s-.5.1-.7.4-.3.6-.3 1c0 .5.1.8.3 1 .2.2.4.3.7.3s.5-.1.7-.3c.1-.1.2-.3.2-.5h.8c-.1.4-.3.8-.6 1.1-.3.3-.7.4-1.1.4-.6 0-1-.2-1.4-.6-.3-.4-.5-.9-.5-1.5 0-.7.2-1.2.6-1.6zm5-.5h1l1.4 4h-.9l-.3-.8h-1.5l-.3.8h-.9c0 .1 1.5-4 1.5-4zm-.1 2.6h1l-.5-1.6-.5 1.6zm6-1.3c-.1-.3-.2-.5-.5-.6-.1 0-.2-.1-.4-.1-.3 0-.6.1-.8.4s-.3.6-.3 1.1c0 .5.1.8.3 1 .2.2.5.3.8.3.3 0 .5-.1.7-.2.2-.2.3-.4.3-.6h-.9v-.7h1.7v2.2h-.6l-.1-.5-.4.4c-.2.1-.5.2-.8.2-.5 0-1-.2-1.3-.6-.4-.4-.5-.9-.5-1.5s.2-1.2.5-1.6c.4-.4.8-.6 1.4-.6.5 0 .9.1 1.2.4.3.3.5.6.5 1h-.8zm5.3 2.4c-.3.3-.7.5-1.3.5s-1-.2-1.3-.5c-.4-.4-.6-.9-.6-1.7 0-.7.2-1.3.6-1.7.3-.3.7-.5 1.3-.5s1 .2 1.3.5c.4.4.6.9.6 1.7.1.8-.2 1.3-.6 1.7zm-.5-.6c.2-.2.3-.6.3-1 0-.5-.1-.8-.3-1-.2-.2-.5-.4-.8-.4s-.6.1-.8.4c-.2.2-.3.6-.3 1 0 .5.1.8.3 1 .2.2.5.4.8.4s.6-.1.8-.4z"/>
  <path d="M26.4 12.5v11.6c0 4.2-7.2 6-7.2 6s-7.2-1.8-7.2-6V12.5h14.4z" class="st3"/>
  <path d="m12.4 16.5.1-.5h.7v2.1h-.5v-1.7l-.3.1zm2.6 0c0 .2-.1.4-.3.5.3.1.4.3.4.6 0 .4-.4.6-.8.6s-.8-.2-.8-.6c0-.3.2-.5.4-.6-.2-.1-.3-.3-.3-.5 0-.4.4-.6.7-.6s.7.2.7.6zm-.9.1c0 .1.1.2.2.2s.2-.1.2-.2-.1-.2-.2-.2-.2 0-.2.2zm0 .9c0 .1.1.3.3.3s.3-.1.3-.3-.1-.3-.3-.3-.3.2-.3.3zm1.3-.9V16h1.8L16 18.2h-.7l.9-1.6h-.8zm3.5.5c0 .5-.3 1.1-.9 1.1-.6 0-.9-.6-.9-1.1s.3-1.1.9-1.1c.6 0 .9.5.9 1.1zm-1.2 0c0 .2.1.6.3.6.3 0 .3-.4.3-.6s-.1-.6-.3-.6c-.3-.1-.3.4-.3.6zm-4.1 4.5s.2.2-.2 1.1c-.1.2-.4.8 0 1.3.3.3.8.2.8.2v.3h-.3c-.3 0-.3.4-.3.4v1.5l.2.2h.8c0-.4-.4-.5-.4-.5v-.6h.7c.4 0 .6-.8.6-.8h.3l-.4.8.9.8v.2h.9c0-.2-.4-.4-.4-.4l-.6-.6c-.1-.1 0-.2.1-.2s.2-.1.3-.1c.1-.1.7-.4.4-1-.2-.6-1-.4-1-.5 0-.1.4-1 .4-1l-.3-.5.4.2 1-.2c.1.8.5.6.5.6v-.6s0-.4-.4-.5c-.4-.2-.8-.1-.9-.1-.1 0-.1-.2-.1-.2h.6l.5-.4h.3c.5-.1.3-.5.3-.5h-.8c-.3 0-1 .5-1 .5s-.1-.6.4-.8c.6-.2.4-.4.4-.4l-.5.2s-.1-.1 0-.2c0-.1.5-.2.5-.2.3-.1.2-.4.2-.4l-.5.2c-.1-.1-.1-.1-.3-.2-.2 0-.5.2-.5.2 0-.1.1-.4.1-.6 0-.2-.8.9-.8.9-1 1.9-.7 3.3-.7 3.3-.7.3-.7 1-.7.9 0-1.1.4-1 .3-1.7 0-.7-.7-.6-.7-.6-.3 0-.4.2-.4.2s.2-.3.3-.2z" class="st0"/>
  <path d="M16.5 19.6h.4l-.1-.2z" class="st3"/>
  <path d="M19.2 26.6s-.6.1-1.1-.5c-.5-.5-.5-1.1-.5-1.1v-1s-.1 0-.1-.2.2-.1.2-.1h.3c0 .4.2.3.2.3.3 0 .2-.3.2-.3H20s-.1.3.2.3c0 0 .2 0 .2-.3h.4s.2 0 .2.1-.1.2-.1.2v1.1s0 .6-.5 1.1c-.6.5-1.2.4-1.2.4z" class="st0"/>
  <path d="M24.9 21.6s-.2.2.2 1.1c.1.2.4.8 0 1.3-.3.3-.8.2-.8.2v.3h.3c.3 0 .3.4.3.4v1.5l-.2.2h-.8c0-.4.5-.5.5-.5v-.6h-.7c-.4 0-.6-.8-.6-.8h-.3l.4.8-.9.8v.2h-.9c0-.2.4-.4.4-.4l.6-.6c.1-.1 0-.2-.1-.2s-.2-.1-.3-.1c-.1-.1-.7-.4-.4-1 .2-.6 1-.4 1-.5 0-.1-.4-1-.4-1l.3-.5-.5.3-1-.2c-.1.8-.5.6-.5.6v-.6s0-.4.4-.5c.4-.2.8-.1.9-.1s.1-.2.1-.2h-.6l-.5-.4h-.3c-.5-.1-.3-.5-.3-.5h.8c.3 0 1 .5 1 .5s.1-.6-.4-.8c-.7-.2-.6-.3-.6-.3l.5.2s.1-.1 0-.2-.5-.2-.5-.2c-.3-.1-.2-.4-.2-.4l.6.1c.1-.1.1-.1.3-.2.2 0 .5.2.5.2 0-.1-.1-.4-.1-.6 0-.2.8.9.8.9 1 1.9.7 3.3.7 3.3.7.3.7 1 .7.9 0-1.1-.4-1-.3-1.7 0-.7.7-.6.7-.6.3 0 .4.2.4.2s-.2-.4-.2-.3z" class="st0"/>
  <path d="M22 19.6h-.4v-.2z" class="st3"/>
  <path d="M19.3 22.3v-2.9l.1-.1c0-.1-.1-.1-.1-.1-.1 0-.1.1-.1.1 0 .1 0 .1.1.1v2.9l-1 1v.3h.1v-.2l.9-.9.9.9v.2h.1v-.3l-1-1z" class="st0"/>
  <path d="M19.2 12.5v.9l1.1-.9zm6.2 5.7h1v-1zm-4.1-5.7-2.1 1.9v.9l3.1-2.8zm2.1 0-4.2 3.8v.9l5.2-4.7zm2 0-6.2 5.7h1.1l6.1-5.7zm-4.1 5.7h1l4.1-3.8v-1zm2.1 0h1l2-1.9v-1z" style="fill:#eaaa00"/>
  <path d="m10.8 13.6-.7.2c-.4.2-.9.3-1.2.5-.3.1-.3.2-.4.4h-.1v-.9h.1v.1c0 .1.1.1.2.1s.3-.1.5-.2v-.7c0-.1-.2-.1-.4-.2s-.2 0-.3.1v.1h-.1v-.8h.1c0 .2 0 .3.4.4l1.8.7.1.2zm-1.4-.5v.6l.8-.3-.8-.3zm1.4 2.8c0 .4-.1.8-.3 1-.2.2-.4.3-.7.3-.9 0-1.3-.7-1.3-1.5v-.9h.1c0 .3.1.3.4.3h1.2c.4 0 .4 0 .4-.3h.1l.1 1.1zM9 15.5c-.3 0-.4 0-.4.3 0 .6.4.9 1 .9.8 0 1-.4 1-1v-.2H9zm1.8 5.1-1.7.8 1.7.7v.7h-.1c0-.3 0-.3-.4-.3H9.1c-.4 0-.4 0-.4.3h-.3v-1h.1c0 .3 0 .3.4.3h1.4l-1.9-.8v-.1l1.8-.8H8.7c-.1 0-.2.1-.2.3h-.1v-.8h.1c0 .2.1.2.2.3.1 0 .3 0 .7.1h.7c.5 0 .5 0 .5-.3h.1v.6h.1zm0 3.6-.7.3c-.4.2-.9.3-1.2.5-.3.1-.3.2-.4.4v-.9h.1v.1c0 .1.1.1.2.1s.3-.1.5-.2v-.7c-.1 0-.3-.1-.5-.2s-.2 0-.2.1v.1h-.2V23h.1c0 .2 0 .3.4.4l1.9.7v.1zm-1.4-.4v.6l.8-.3-.8-.3zm1 1.5c.4-.1.4-.2.3-.4h.1l.3 1H11c-.1-.2-.1-.3-.5-.1l-1.1.2c-.4.1-.7.2-1-.1l-.3-.3.1-.1c.2.2.4.2.5.2.2 0 .4-.1.6-.1l1.1-.3zm.8 3c-.7.4-1.3.2-1.7-.4-.4-.6-.1-1.3.4-1.6.5-.3 1.3-.3 1.7.4.4.6.2 1.3-.4 1.6zm-.9-1.6c-.6.3-.8.8-.6 1.3.2.3.6.4 1.2.1.6-.4.8-.8.6-1.2-.2-.5-.7-.6-1.2-.2zm4.8 3.1c0 .1-.2.3-.2.5l-.1-.1c.1-.2.1-.3.1-.3 0-.1-.1-.2-.3-.3l-.2-.1c-.1-.1-.1-.1-.2 0l-.4.6.3.2c.3.2.3.1.5-.1l.1.1-.5.7-.1-.1c.1-.3.1-.3-.1-.4l-.3-.2-.3.5c-.1.2-.2.3-.1.3 0 .1.1.1.3.2.2.1.3.2.4.1.1 0 .2-.1.3-.2l.1.1c-.1.1-.3.4-.4.4l-1.5-.9.1-.1c.3.1.3.1.5-.2l.7-1.1c.2-.3.2-.4 0-.5l.1-.1 1.2 1z" class="st3"/>
  <path d="M15.9 30.1 16 32l1.3-1.3.6.3v.1c-.3-.1-.3-.1-.4.3l-.5 1.1c-.1.4-.1.4.1.5v.1l-.9-.4v-.1c.3.1.3.1.4-.3l.5-1.3-1.5 1.4h-.1v-1.9l-.4.8c-.1.3-.2.5-.2.6 0 .1 0 .2.2.3v.1l-.8-.3v-.1c.2.1.2.1.3-.1.1-.1.2-.3.3-.6l.3-.7c.2-.4.2-.5-.1-.6v-.1l.8.3zm5.5.5c.4-.1.7-.2 1-.1.2.1.4.3.5.6.3.8-.2 1.4-.9 1.7l-.8.3V33c.3-.1.3-.2.1-.5l-.5-1.2c-.1-.4-.2-.4-.4-.3v-.1l1-.3zm.3 1.8c.1.3.2.3.4.2.5-.2.7-.7.4-1.3-.3-.7-.8-.8-1.3-.6-.1 0-.2.1-.2.1s0 .1.1.2l.6 1.4z" class="st3"/>
  <path d="M24 29.5s.2.3.3.5h-.1c-.1-.1-.2-.2-.3-.2-.1 0-.2 0-.4.1l-.1.1c-.1.1-.1.1-.1.2l.3.7.3-.1c.3-.1.3-.2.2-.4l.1-.1.3.7-.1.1c-.2-.2-.2-.2-.4-.1l-.3.1.3.5c.1.2.2.3.2.3.1 0 .2 0 .3-.1.2-.1.3-.2.3-.3v-.4h.1c0 .1.1.5.2.6l-1.5.8v-.1c.3-.2.3-.2.1-.5l-.6-1.1c-.2-.3-.2-.4-.5-.2v-.1l1.4-1zm1.1-.7c-.2.2-.2.3 0 .6l.7 1.1c.2.3.2.3.5.2l.1.1-.9.5-.1-.1c.2-.2.2-.2 0-.5l-.7-1.1c-.2-.3-.2-.3-.5-.2l-.1-.1 1-.5zm4.1-2.2c.1 0 .2.1.3.1 0 .2 0 .5-.1.8-.2.8-.9 1.1-1.5.9-.8-.2-1-1-.8-1.7.1-.3.2-.5.3-.6.1 0 .3.1.6.1v.1c-.5-.1-.6.2-.7.5-.2.5.1.9.7 1.1.5.2 1.1.1 1.3-.5v-.2c0-.1-.1-.1-.2-.2l-.3-.1c-.2-.1-.3-.1-.4.3h-.1l.3-.9h.1c0 .2 0 .2.2.3h.3zm-1.6-1.9c.1.3.1.3.5.4l1.2.2h.4c.1-.1.1-.2.1-.3 0-.2.1-.6 0-.7-.1-.1-.2-.1-.3-.2V24c.1 0 .5.2.6.2l-.4 1.8h-.1c0-.3 0-.3-.4-.4l-1.2-.1c-.4-.1-.4 0-.5.2h-.1l.2-1zm1.3-3.2c.8.1 1.2.6 1.2 1.3 0 .7-.6 1.1-1.2 1.1s-1.2-.5-1.2-1.3c0-.7.5-1.2 1.2-1.1zm-.2 1.9c.6 0 1.2-.2 1.2-.7 0-.4-.3-.7-.9-.7-.7-.1-1.2.2-1.2.7-.1.3.3.6.9.7zm-1-3c0-.3 0-.4.1-.6.1-.1.2-.2.5-.2s.5.2.6.5c.1-.1.3-.2.5-.3.2-.1.3-.2.4-.3l.2-.2h.1v.1c0 .4-.1.5-.3.6l-.6.3c-.2.1-.2.2-.2.3v.1h.5c.4 0 .4 0 .4-.3h.1v1h-.1c0-.3-.1-.3-.4-.3h-1.2c-.4 0-.4 0-.4.3h-.1c-.1 0-.1-1-.1-1zm1.2.3v-.1c0-.1 0-.2-.1-.3-.1-.1-.3-.2-.5-.2-.4 0-.5.3-.5.5s0 .2.1.2l1-.1zM27.7 18h.1c0 .3.1.3.4.3h1.2c.4 0 .4 0 .4-.3h.2v1h-.1c0-.3-.1-.3-.4-.3h-1.2c-.4 0-.4 0-.4.3h-.1v-1zm-.1-1.4.7-.2c.4-.2.9-.3 1.2-.5.3-.1.3-.2.4-.4h.1v.9h-.1v-.1c0-.1-.1-.1-.2-.1s-.3.1-.5.2v.7c.1 0 .3.1.5.2s.2 0 .3-.1v-.1.8h-.1c0-.2 0-.3-.4-.4l-1.8-.7-.1-.2zm1.4.4v-.6l-.8.3.8.3zm-1.3-2.5 1.7-.8-1.7-.7v-.7h.1c0 .3 0 .3.4.3h1.2c.4 0 .4 0 .4-.3h.2v1h-.1c0-.3 0-.3-.4-.3h-1.4l1.9.8v.2l-1.8.8h1.5c.1 0 .2-.1.2-.3h.1v.8h-.1c0-.2-.1-.2-.2-.3-.1 0-.3 0-.7-.1h-.7c-.5 0-.5 0-.5.3h-.1v-.7z" class="st3"/>
  <circle cx="19.2" cy="32.4" r=".4" class="st3"/>
  <circle cx="26.6" cy="29.1" r=".4" class="st3"/>
  <circle cx="9.6" cy="18.6" r=".4" class="st3"/>
  <path d="M12.9 28.2c.2.2.3.3.3.5s0 .3-.1.5c-.2.2-.5.3-.8.1 0 .1-.1.4-.1.6 0 .2-.1.4 0 .5 0 .1 0 .2.1.3l-.1.1-.1-.1c-.3-.3-.3-.4-.3-.7 0-.2.1-.4.1-.6 0-.1 0-.2-.1-.2V29l-.3.3c-.3.3-.3.3-.1.5l-.1.1-.7-.7.1-.1c.2.2.3.2.5-.1l.8-.9c.3-.3.3-.3.1-.5l.1-.1.7.7zm-1 .7.1.1c.1.1.2.1.3.2.2 0 .3-.1.4-.2.2-.3.1-.5 0-.7-.1-.1-.1-.1-.2 0l-.6.6z" class="st3"/>
</svg>
